<?xml version="1.0" encoding="utf-8"?>
<!-- Generator: Adobe Illustrator 26.0.3, SVG Export Plug-In . SVG Version: 6.00 Build 0)  -->
<svg version="1.1" id="Layer_1" xmlns="http://www.w3.org/2000/svg" xmlns:xlink="http://www.w3.org/1999/xlink" x="0px" y="0px"
	 viewBox="0 0 99.2 99.2" style="enable-background:new 0 0 99.2 99.2;" xml:space="preserve">
<style type="text/css">
	.st0{fill:#232323;}
</style>
<path class="st0" d="M88.8,39.1c-2.8-2.8-8-6.1-16.8-6.1c-1.6,0-3.2,0.1-4.7,0.3l-0.5,0.1l0.2,0.5c0.4,1.4,0.7,2.9,0.9,4.4l0.1,0.4
	l0.4-0.1c1.2-0.1,2.4-0.2,3.6-0.2c7,0,10.9,2.5,13,4.6c2.1,2.1,3.3,4.9,3.4,7.8c0,3.6-1.9,8.1-3.7,12.6c-1.4,3.3-2.5,6.6-3.5,10
	c-1.7,6.8-4.6,18.2-11.4,18.2c-2.2,0-4.9-1.3-8.1-3.8c-1.7,1-3.6,1.8-5.5,2.4c5.1,4.5,9.4,6.7,13.5,6.7c11,0,14.6-14.5,16.6-22.2
	c0.8-3.1,1.9-6.2,3.2-9.2c2-4.9,4.2-9.9,4.2-14.6C93.7,46.3,92,42.2,88.8,39.1z"/>
<path class="st0" d="M65,28.7l0.5-0.1c1.6-0.3,3.2-0.4,4.7-0.5h0.5C63.4,10.8,44.8,1.5,34.1,1.5C20,1.5,15,15.9,15,29.3
	c0,6.3,2.1,12.8,3.9,17.2l0.2,0.4l0.4-0.2c1.3-0.6,2.6-1.1,4.2-1.7l0.4-0.2l-0.2-0.4c-2.2-5.5-3.5-11.1-3.5-15.2
	c0-8.6,2.1-15.6,5.8-19.3c2.1-2.1,5-3.3,8-3.2C42.5,6.9,58.3,14.6,65,28.7z"/>
<path class="st0" d="M54,80.3l-0.2-0.2l-0.3,0.1c-2.9,1-5.9,1.5-9,1.5c-10.8-0.2-21.2-4.4-29-11.9c-3.6-3.6-5.7-7.4-5.7-10.5
	c-0.1-3.9,1.7-7.6,4.9-9.9c-0.6-1.5-1.4-3.3-2-5.2C7.3,48,4.6,52.9,4.6,59.3c0,4.5,2.6,9.6,7.2,14.3c8.8,8.5,20.5,13.3,32.8,13.4
	c4.4,0,8.7-0.9,12.7-2.6l0.6-0.3l-0.4-0.4C56.2,82.6,55.1,81.4,54,80.3z"/>
<path class="st0" d="M47.9,43.1v-4.7c-1.2-0.3-2.5-0.5-3.8-0.5c-5.5,0-8.1,3.7-8.1,7.4c0,3.5,1.3,6.9,6.2,14.5c2-0.3,4-0.4,5.9-0.5
	c-4.3-7.9-5.3-10.7-5.3-12.8c0-2.3,1.4-3.5,4.1-3.5L47.9,43.1z"/>
<path class="st0" d="M33.1,50c-0.4-1.3-0.7-2.6-0.8-4c-4.3-0.2-7.6,2.3-7.6,5.8c0,2.8,1.5,5.3,7.4,10.4c1.7-0.6,3.5-1.1,5.3-1.5
	c-5.8-5.5-6.8-6.9-6.8-8.5C30.6,51.1,31.4,50.3,33.1,50z"/>
<path class="st0" d="M51.9,43.1v-4.7c1.2-0.3,2.5-0.5,3.8-0.5c5.4,0,8.1,3.7,8.1,7.4c0,3.5-1.3,6.9-6.2,14.5c-2-0.3-4-0.4-5.9-0.5
	C56,51.5,57,48.7,57,46.7c0-2.3-1.4-3.5-4.1-3.5L51.9,43.1z"/>
<path class="st0" d="M66.8,50c0.4-1.3,0.7-2.6,0.8-4c4.3-0.2,7.6,2.3,7.6,5.8c0,2.8-1.5,5.3-7.4,10.4c-1.7-0.6-3.5-1.1-5.3-1.5
	c5.8-5.5,6.8-6.9,6.8-8.5C69.2,51.1,68.4,50.3,66.8,50z"/>
<path class="st0" d="M49.9,69.3c4.6,0,9.1,0.7,13.5,2l1.6-5.2c-9.9-2.9-20.4-2.9-30.2,0l1.6,5.2C40.7,70,45.3,69.3,49.9,69.3z"/>
<rect x="46.5" y="27.2" transform="matrix(0.7072 -0.7071 0.7071 0.7072 -7.0285 44.2552)" class="st0" width="6.8" height="6.8"/>
</svg>
