<svg xmlns="http://www.w3.org/2000/svg" width="8.067" height="13.733" viewBox="0 0 8.067 13.733">
  <path id="Path_922" data-name="Path 922" d="M234.069,28.437a2.228,2.228,0,0,1-.909-.765.717.717,0,0,1,.011-.894,2.011,2.011,0,0,1,.155-.167q2.458-2.46,4.917-4.916a1.106,1.106,0,0,1,.136-.1c-.061-.065-.1-.1-.133-.139L233.295,16.5a.707.707,0,0,1-.164-.953,3.779,3.779,0,0,1,.724-.723.676.676,0,0,1,.844.069,1.276,1.276,0,0,1,.109.1L240.8,20.98a.759.759,0,0,1,.176.97,1.109,1.109,0,0,1-.177.217q-2.993,3-5.991,5.985a2.524,2.524,0,0,1-.439.286Z" transform="translate(-233.009 -14.706)" fill="#1f1d59"/>
</svg>
