<svg id="logo-kpn" xmlns="http://www.w3.org/2000/svg" width="31.526" height="33.755" viewBox="0 0 31.526 33.755">
  <path id="Path_1096" data-name="Path 1096" d="M67.735,35.158A8.075,8.075,0,0,0,61.791,33a12.712,12.712,0,0,0-1.663.106l-.177.035.071.177a11.028,11.028,0,0,1,.318,1.557l.035.142.142-.035c.425-.035.849-.071,1.274-.071a6.185,6.185,0,0,1,4.6,1.628,4.109,4.109,0,0,1,1.2,2.76,13.818,13.818,0,0,1-1.309,4.458,32.272,32.272,0,0,0-1.238,3.538c-.6,2.406-1.628,6.44-4.034,6.44a5.124,5.124,0,0,1-2.866-1.345,9.54,9.54,0,0,1-1.946.849c1.8,1.592,3.326,2.371,4.777,2.371,3.892,0,5.166-5.131,5.874-7.855A22.188,22.188,0,0,1,67.983,44.5a14.686,14.686,0,0,0,1.486-5.166A5.687,5.687,0,0,0,67.735,35.158Z" transform="translate(-37.942 -21.854)" fill="#232323"/>
  <path id="Path_1097" data-name="Path 1097" d="M32.692,11.124l.177-.035a14,14,0,0,1,1.663-.177h.177C32.125,4.791,25.544,1.5,21.758,1.5,16.769,1.5,15,6.6,15,11.336a16.944,16.944,0,0,0,1.38,6.086l.071.142.142-.071c.46-.212.92-.389,1.486-.6l.142-.071-.071-.142A15.68,15.68,0,0,1,16.911,11.3c0-3.043.743-5.52,2.052-6.829A3.842,3.842,0,0,1,21.794,3.34C24.73,3.411,30.321,6.135,32.692,11.124Z" transform="translate(-11.32 -1.5)" fill="#232323"/>
  <path id="Path_1098" data-name="Path 1098" d="M22.079,56.973l-.071-.071-.106.035a9.7,9.7,0,0,1-3.184.531A15.208,15.208,0,0,1,8.457,53.258,5.851,5.851,0,0,1,6.44,49.543a4.168,4.168,0,0,1,1.734-3.5c-.212-.531-.5-1.168-.708-1.84A6.18,6.18,0,0,0,4.6,49.543,7.712,7.712,0,0,0,7.148,54.6a16.875,16.875,0,0,0,11.606,4.741,11.47,11.47,0,0,0,4.494-.92l.212-.106-.142-.142C22.858,57.787,22.468,57.363,22.079,56.973Z" transform="translate(-4.6 -29.091)" fill="#232323"/>
  <path id="Path_1099" data-name="Path 1099" d="M40.211,39.74V38.077a5.6,5.6,0,0,0-1.345-.177A2.614,2.614,0,0,0,36,40.518c0,1.238.46,2.441,2.194,5.131.708-.106,1.415-.142,2.088-.177-1.521-2.8-1.875-3.786-1.875-4.529,0-.814.5-1.238,1.451-1.238Z" transform="translate(-24.89 -25.021)" fill="#232323"/>
  <path id="Path_1100" data-name="Path 1100" d="M27.672,47.408a6.275,6.275,0,0,1-.283-1.415c-1.521-.071-2.689.814-2.689,2.052,0,.991.531,1.875,2.618,3.68a16.3,16.3,0,0,1,1.875-.531c-2.052-1.946-2.406-2.441-2.406-3.008C26.788,47.8,27.071,47.514,27.672,47.408Z" transform="translate(-17.588 -30.247)" fill="#232323"/>
  <path id="Path_1101" data-name="Path 1101" d="M51.771,39.74V38.077a5.6,5.6,0,0,1,1.345-.177,2.635,2.635,0,0,1,2.866,2.618c0,1.238-.46,2.441-2.194,5.131-.708-.106-1.415-.142-2.088-.177,1.521-2.76,1.875-3.751,1.875-4.458,0-.814-.5-1.238-1.451-1.238Z" transform="translate(-35.035 -25.021)" fill="#232323"/>
  <path id="Path_1102" data-name="Path 1102" d="M64.021,47.408a6.275,6.275,0,0,0,.283-1.415c1.521-.071,2.689.814,2.689,2.052,0,.991-.531,1.875-2.618,3.68a16.3,16.3,0,0,0-1.875-.531c2.052-1.946,2.406-2.441,2.406-3.008C64.871,47.8,64.588,47.514,64.021,47.408Z" transform="translate(-42.013 -30.247)" fill="#232323"/>
  <path id="Path_1103" data-name="Path 1103" d="M40.143,65.827a16.789,16.789,0,0,1,4.777.708l.566-1.84a18.931,18.931,0,0,0-10.686,0l.566,1.84A16.6,16.6,0,0,1,40.143,65.827Z" transform="translate(-24.114 -41.837)" fill="#232323"/>
  <rect id="Rectangle_475" data-name="Rectangle 475" width="2.406" height="2.406" transform="matrix(0.707, -0.707, 0.707, 0.707, 14.326, 10.3)" fill="#232323"/>
</svg>
