<svg id="Group_1078" data-name="Group 1078" xmlns="http://www.w3.org/2000/svg" xmlns:xlink="http://www.w3.org/1999/xlink" width="57.871" height="38.659" viewBox="0 0 57.871 38.659">
  <defs>
    <clipPath id="clip-path">
      <rect id="Rectangle_494" data-name="Rectangle 494" width="57.871" height="38.659"/>
    </clipPath>
  </defs>
  <g id="Group_1078-2" data-name="Group 1078" clip-path="url(#clip-path)">
    <path id="Path_1132" data-name="Path 1132" d="M7.52,11.394l1.122-.569,3.824-1.092c1.24-.532,1.4-1.914,2.2-2.794L16.614,4.8l2.53-1.959,1.564-.891L24.858.472,28.971,0l4.094.446L37.24,1.977l1.426.811,2.678,2.068,1.9,2.093L45.48,10.4c-.129.254.014.461.117.675a3.256,3.256,0,0,1,.2.647c.232,2.3,1.577,3.324,3.805,3.352l.543.136,3.624,2.178,1.752,1.946c1.079,1.315,1.365,3.048,2.336,4.42q0,2.622.009,5.244a10.269,10.269,0,0,0-1.07,2.729,18.468,18.468,0,0,1-3.1,4.054,21.061,21.061,0,0,1-4.067,2.289,26.289,26.289,0,0,1-4.127.589H16.573l-4.114-.094a27.1,27.1,0,0,1-4.15-1.292,20.789,20.789,0,0,1-4.1-2.862L2.094,31.67A14.389,14.389,0,0,1,.309,26.507a11.362,11.362,0,0,1,0-5.265A16.721,16.721,0,0,1,3.023,15.2L4.2,13.887,7.52,11.394m17.32-5.8A5.533,5.533,0,0,0,22.607,6.6a5.038,5.038,0,0,0-1.9,1.247,9.231,9.231,0,0,0-2.836,3.188A10.266,10.266,0,0,0,16.5,13.59a1.605,1.605,0,0,1-1.43.821c-2.455.214-4.878.579-6.765,2.413a6.594,6.594,0,0,0-2.128,2.512,7.228,7.228,0,0,0-1.2,4.129,7.765,7.765,0,0,0,.6,4.13,7.336,7.336,0,0,0,2.436,3.593,1.025,1.025,0,0,0,.725.566,6.618,6.618,0,0,0,3.677,1.731,13.694,13.694,0,0,0,4.154.2H45.511c3.33.55,7.456-3.063,7.407-6.1a6.55,6.55,0,0,0-.606-4.118,6.273,6.273,0,0,0-2.687-2.96,6.563,6.563,0,0,0-4.114-1.125c-.969-.242-2.046.2-2.95-.458-.426-2.761-.832-5.528-2.526-7.883a8,8,0,0,0-2.754-3.107,11.866,11.866,0,0,0-8.312-2.968,9.011,9.011,0,0,0-4.131.618" transform="translate(0)"/>
    <path id="Path_1133" data-name="Path 1133" d="M84.191,47.88a28.16,28.16,0,0,0,3.273,3.269l.858.86,1.094,1.3c-.278.469-.746.153-1.071.322-1.271-.017-2.544,0-3.812-.064-.718-.035-.966.216-.942.929.056,1.633.056,3.268.078,4.9.07,1.03-.267,1.57-1.437,1.4a13.242,13.242,0,0,0-2.149.023,13.637,13.637,0,0,0-2.152-.024c-1.162.163-1.522-.358-1.442-1.4.019-.457.073-.916.049-1.37-.076-1.444.626-3.4-.328-4.2-.99-.831-2.891-.253-4.395-.2-.325-.131-.726.084-1.188-.374l9.453-9.3,4.111,3.931" transform="translate(-51.103 -31.799)"/>
  </g>
</svg>
