<svg xmlns="http://www.w3.org/2000/svg" xmlns:xlink="http://www.w3.org/1999/xlink" width="17.673" height="22.789" viewBox="0 0 17.673 22.789">
  <defs>
    <clipPath id="clip-path">
      <rect id="Rectangle_474" data-name="Rectangle 474" width="17.673" height="22.789" fill="#fff"/>
    </clipPath>
  </defs>
  <g id="Group_1020" data-name="Group 1020" clip-path="url(#clip-path)">
    <path id="Path_1094" data-name="Path 1094" d="M17.467,1.288c.371.447.049.992.206,1.469-.138.365.142.806-.205,1.134H.2C-.133,3.556.137,3.117,0,2.75c.152-.476-.162-1.015.2-1.462H2.364a9.241,9.241,0,0,1,1.074.031A1.607,1.607,0,0,0,5.107.627,1.619,1.619,0,0,1,6.677.005h4.317c.477.069,1.021-.1,1.366.423a2.028,2.028,0,0,0,2.167.887,7.257,7.257,0,0,1,.788-.028h2.153" transform="translate(0 0)" fill="#fff"/>
    <path id="Path_1095" data-name="Path 1095" d="M8.5,35.025c.357-.02.713-.057,1.07-.058q6.931-.013,13.863-.018l.241.078q.015.97.031,1.939a6.626,6.626,0,0,0,0,2.168V41.29a6.626,6.626,0,0,0,0,2.168v2.151a6.627,6.627,0,0,0,0,2.168q0,1.076,0,2.153a3.276,3.276,0,0,1-.987,2.166l-.151.128a4.157,4.157,0,0,1-2.153.459H11.775a4.269,4.269,0,0,1-2.155-.452L9.458,52.1a3.238,3.238,0,0,1-.974-2.167V36.968L8.5,35.025m2.585,4.11v8.643c-.008.55.02,1.1-.033,1.648s.151.68.678.676c2.987-.022,5.973-.006,8.96-.01.147,0,.348.083.417-.154V39.129a8.531,8.531,0,0,1,.029-.93c.081-.6-.17-.779-.722-.642H11.777c-.554-.136-.8.05-.725.647a8.659,8.659,0,0,1,.029.93" transform="translate(-7.257 -29.896)" fill="#fff"/>
  </g>
</svg>
