<svg xmlns="http://www.w3.org/2000/svg" xmlns:xlink="http://www.w3.org/1999/xlink" width="31" height="31" viewBox="0 0 31 31">
  <defs>
    <clipPath id="clip-path">
      <rect id="Rectangle_468" data-name="Rectangle 468" width="18.976" height="18.951" fill="#1c395c"/>
    </clipPath>
  </defs>
  <g id="Group_1014" data-name="Group 1014" transform="translate(-394 -144.584)">
    <rect id="Rectangle_468-2" data-name="Rectangle 468" width="31" height="31" rx="5" transform="translate(394 144.584)" fill="#ffc65a"/>
    <g id="Group_1011" data-name="Group 1011" transform="translate(399.685 150.264)">
      <g id="Group_1008" data-name="Group 1008" clip-path="url(#clip-path)">
        <path id="Path_1091" data-name="Path 1091" d="M106.35,2.217l.273-.372A12.519,12.519,0,0,0,108.057.41l.387-.327a1.356,1.356,0,0,1,1.547.452c.63.692,1.3,1.35,1.983,1.989a1.245,1.245,0,0,1,.405,1.49l-.337.374A12.918,12.918,0,0,0,110.6,5.83l-.362.269-.34-.277a13.663,13.663,0,0,0-1.46-1.458.81.81,0,0,0-.346-.346l-1.324-1.33-.419-.472" transform="translate(-93.507 0)" fill="#1c395c"/>
        <path id="Path_1092" data-name="Path 1092" d="M2.3,44.155H.494q-.537.046-.49-.49,0-.9,0-1.8a9.175,9.175,0,0,1,.12-1.808.941.941,0,0,0,.366-.366A12.837,12.837,0,0,0,1.927,38.25a.94.94,0,0,0,.367-.366,12.731,12.731,0,0,0,1.44-1.438l.365-.365a12.74,12.74,0,0,0,1.439-1.44l.365-.365a12.741,12.741,0,0,0,1.44-1.44.936.936,0,0,0,.365-.365,12.77,12.77,0,0,0,1.439-1.44l.365-.365a12.7,12.7,0,0,0,1.439-1.44.938.938,0,0,0,.365-.365c.252-.268.451-.258.726.026q1.586,1.64,3.227,3.227c.28.271.307.472.032.727l-.369.369a12.519,12.519,0,0,0-1.436,1.436l-.368.368a12.5,12.5,0,0,0-1.436,1.436l-.368.368a12.5,12.5,0,0,0-1.436,1.436l-.368.368a12.5,12.5,0,0,0-1.436,1.436l-.368.368a12.7,12.7,0,0,0-1.437,1.435.952.952,0,0,0-.367.367A12.682,12.682,0,0,0,4.473,43.67a.94.94,0,0,0-.368.369,9.649,9.649,0,0,1-1.809.116m6.325-9.523a4.053,4.053,0,0,0-.924.925l-.88.88a4.056,4.056,0,0,0-.924.925l-.88.88a33.923,33.923,0,0,0-2.807,2.79c-.125,1.024-.107,1.042.921.923.107-.087.222-.166.319-.263q4.337-4.328,8.671-8.66c.55-.55.532-.538-.021-1.125-.313-.332-.553-.452-.791.043l-.88.88a4.051,4.051,0,0,0-.925.924l-.88.88" transform="translate(0 -25.208)" fill="#1c395c"/>
      </g>
    </g>
  </g>
</svg>
