<svg id="Group_1028" data-name="Group 1028" xmlns="http://www.w3.org/2000/svg" xmlns:xlink="http://www.w3.org/1999/xlink" width="29.302" height="20.086" viewBox="0 0 29.302 20.086">
  <defs>
    <clipPath id="clip-path">
      <rect id="Rectangle_476" data-name="Rectangle 476" width="29.302" height="20.086"/>
    </clipPath>
  </defs>
  <g id="Group_1028-2" data-name="Group 1028" clip-path="url(#clip-path)">
    <path id="Path_1105" data-name="Path 1105" d="M.161,10.7C-.316,9.813.4,9.174.639,8.435l.422-.759L1.975,6.32l1.2-1.414L4.1,4.012,5.645,2.788l1.817-1.08.3-.157,2.3-.9L12.359.159,14.649,0l2.3.16,2.29.489,2.3.9.308.146,1.991,1.219,1.193.939,1.1,1.057,1.064,1.223,1.062,1.53.42.781c.229.734.935,1.369.472,2.248a20.065,20.065,0,0,1-3.059,4.544l.011.016a20.9,20.9,0,0,1-4.558,3.267,20.574,20.574,0,0,1-4.6,1.4l-2.285.167-2.305-.176a19.753,19.753,0,0,1-4.394-1.288,20.046,20.046,0,0,1-4.737-3.376l0-.012A18.084,18.084,0,0,1,.161,10.7m14.5,6.666a8.247,8.247,0,0,0,2.292-.238,6.435,6.435,0,0,0,2.3-.612,12.238,12.238,0,0,0,6.732-5.655c.737-1,0-1.7-.507-2.445a7.557,7.557,0,0,0-1.642-1.946.561.561,0,0,0-.4-.353,6.963,6.963,0,0,0-1.881-1.454,11.2,11.2,0,0,0-4.6-1.721,6.994,6.994,0,0,0-2.3-.188,7.042,7.042,0,0,0-2.295.189A11.122,11.122,0,0,0,7.735,4.689,6.514,6.514,0,0,0,5.884,6.111a.62.62,0,0,0-.406.349A8.09,8.09,0,0,0,3.826,8.427c-.156.226-.325.444-.466.679-.305.508-.69,1.016-.141,1.6a12.4,12.4,0,0,0,6.839,5.812,6.107,6.107,0,0,0,2.3.609,6.5,6.5,0,0,0,2.3.24" transform="translate(0)"/>
    <path id="Path_1106" data-name="Path 1106" d="M57.747,36.007l-.73-1.049a8.773,8.773,0,0,1-.711-2.269,10.617,10.617,0,0,1,.176-2.283,8.759,8.759,0,0,1,1.224-2.3l.013-.014a6.772,6.772,0,0,1,4.6-2.123l.457.012,1.838.447a8.757,8.757,0,0,1,2.16,1.527l.287.315A9.6,9.6,0,0,1,68.152,30.4a10.684,10.684,0,0,1,.174,2.3,8.342,8.342,0,0,1-.716,2.269L66.895,36l-1.455,1.257a3.239,3.239,0,0,0-1.027.443,10.815,10.815,0,0,1-2.092.36,8.908,8.908,0,0,1-2.3-.453l-1.051-.529-1.22-1.073m2.112-1.781a1.994,1.994,0,0,0,1.117.8,3.171,3.171,0,0,0,3.644-.638,2.459,2.459,0,0,0,.917-1.691,3.2,3.2,0,0,0-3.218-3.961c-2.079-.218-3.876,2.331-3.22,3.96a2.33,2.33,0,0,0,.76,1.531" transform="translate(-47.665 -21.981)"/>
  </g>
</svg>
