<svg id="Group_1084" data-name="Group 1084" xmlns="http://www.w3.org/2000/svg" xmlns:xlink="http://www.w3.org/1999/xlink" width="21.568" height="21.655" viewBox="0 0 21.568 21.655">
  <defs>
    <clipPath id="clip-path">
      <rect id="Rectangle_489" data-name="Rectangle 489" width="21.568" height="21.655"/>
    </clipPath>
  </defs>
  <g id="Group_1054" data-name="Group 1054" clip-path="url(#clip-path)">
    <path id="Path_1126" data-name="Path 1126" d="M12.649,21.519a12.208,12.208,0,0,1-5.541-.451L5.244,20.16a.114.114,0,0,0-.106-.046L3.387,18.767a2.479,2.479,0,0,0-.611-.635L1.549,16.577,1.5,16.4.605,14.523A13.456,13.456,0,0,1,.079,8.976l.5-1.861.885-1.842.219-.384,1.206-1.5.5-.5L5.142,1.546A.116.116,0,0,0,5.236,1.5L7.1.6,8.939.128A12.238,12.238,0,0,1,14.477.6l1.869.914.247.152,1.468,1.122.744.753,1.233,1.642a.06.06,0,0,0,.031.075l.872,1.854a12.106,12.106,0,0,1,.5,5.582L21.021,14.4l-.95,2.009a.092.092,0,0,0-.038.082l-1.356,1.766-.484.488L16.429,20.1a.083.083,0,0,0-.078.037l-1.861.9-1.84.485m6.763-10.69a5.79,5.79,0,0,0-.238-1.862,7.622,7.622,0,0,0-1.83-3.72,4.179,4.179,0,0,0-.991-1A7.461,7.461,0,0,0,12.647,2.41a4.617,4.617,0,0,0-1.855-.235,4.609,4.609,0,0,0-1.848.234A7.7,7.7,0,0,0,5.235,4.243a3.976,3.976,0,0,0-1,1,7.519,7.519,0,0,0-1.839,3.72,4.583,4.583,0,0,0-.218,1.858,5.012,5.012,0,0,0,.229,1.861,7.521,7.521,0,0,0,1.828,3.726,4.437,4.437,0,0,0,1,1,7.428,7.428,0,0,0,3.711,1.833,4.414,4.414,0,0,0,1.854.233,4.653,4.653,0,0,0,1.848-.236,7.829,7.829,0,0,0,3.848-1.96,2.922,2.922,0,0,0,.731-.737,7.825,7.825,0,0,0,1.957-3.861,5.037,5.037,0,0,0,.231-1.855" transform="translate(0 0)"/>
    <path id="Path_1127" data-name="Path 1127" d="M80.3,83.131c-.008.433-.035.867-.018,1.3.012.328-.11.438-.429.424a11.48,11.48,0,0,0-1.295.009c-.385.027-.493-.122-.487-.5.016-1.031,0-2.063-.009-3.094V79.412c.065-1.057.065-1.057,1.118-1.123,1.058.063,1.058.063,1.121,1.125v3.717" transform="translate(-68.384 -68.586)"/>
    <path id="Path_1128" data-name="Path 1128" d="M78.035,45.191c.008-.453.027-.906.021-1.359,0-.266.1-.382.363-.359.082.007.164,0,.246,0,1.622-.014,1.6-.014,1.6,1.591,0,.481-.13.686-.622.613a2.544,2.544,0,0,0-.491.019,3.984,3.984,0,0,0-.592-.018c-.378.043-.56-.1-.529-.487" transform="translate(-68.36 -38.082)"/>
  </g>
</svg>
