<svg xmlns="http://www.w3.org/2000/svg" width="46.649" height="47.563" viewBox="0 0 46.649 47.563">
  <path id="Path_1125" data-name="Path 1125" d="M23.781,47.563a1.787,1.787,0,0,1,0-3.575A20.354,20.354,0,0,0,42.306,31.863h-3.67a16.908,16.908,0,1,1,0-16.163h3.67A20.209,20.209,0,0,0,3.575,23.781a1.787,1.787,0,0,1-3.575,0,23.785,23.785,0,0,1,46.574-6.8,1.787,1.787,0,0,1-1.713,2.3H37.533a1.787,1.787,0,0,1-1.625-1.043,13.333,13.333,0,1,0,0,11.1,1.787,1.787,0,0,1,1.625-1.043h7.328a1.787,1.787,0,0,1,1.713,2.3A23.966,23.966,0,0,1,38.12,42.755a23.572,23.572,0,0,1-14.338,4.807"/>
</svg>
