<svg xmlns="http://www.w3.org/2000/svg" width="514.0163" height="159.668" viewBox="0 0 514.0163 159.668"><g id="Layer_2" data-name="Layer 2"><g id="Layer_1-2" data-name="Layer 1"><path d="M205.7252,66.06q-8.6192,0-13.1323-4.794t-4.5137-13.6171a20.9383,20.9383,0,0,1,1.377-7.8282,16.87,16.87,0,0,1,3.7744-5.8144,15.7635,15.7635,0,0,1,5.7119-3.5948,20.59,20.59,0,0,1,7.1909-1.2246,23.0782,23.0782,0,0,1,4.08.3321,26.5648,26.5648,0,0,1,3.2129.7646,15.89,15.89,0,0,1,2.2949.8926q.9184.4586,1.3262.7139l-2.2949,6.4257a19.3508,19.3508,0,0,0-3.8-1.4785,18.1243,18.1243,0,0,0-4.9214-.6123,10.8634,10.8634,0,0,0-3.5952.6123A8.133,8.133,0,0,0,199.3248,38.8a9.7689,9.7689,0,0,0-2.1674,3.4942,14.6455,14.6455,0,0,0-.8159,5.2021,18.5749,18.5749,0,0,0,.5356,4.5645,9.6774,9.6774,0,0,0,1.7339,3.6464,8.3037,8.3037,0,0,0,3.1362,2.4219,11.1536,11.1536,0,0,0,4.6924.8926,21.2847,21.2847,0,0,0,3.1108-.2041,22.7059,22.7059,0,0,0,2.4483-.4844,12.7787,12.7787,0,0,0,1.8867-.6377q.8152-.3559,1.479-.6631l2.1929,6.375a18.6082,18.6082,0,0,1-4.7427,1.837A27.7,27.7,0,0,1,205.7252,66.06Z"/><path d="M255.0426,47.6486a21.76,21.76,0,0,1-1.3515,7.9814,16.4287,16.4287,0,0,1-3.6978,5.7637,15.1879,15.1879,0,0,1-5.5845,3.4931,20.309,20.309,0,0,1-6.9614,1.1729,19.7862,19.7862,0,0,1-6.834-1.1729,15.7132,15.7132,0,0,1-5.61-3.4931,16.3361,16.3361,0,0,1-3.7745-5.7637,21.3883,21.3883,0,0,1-1.3769-7.9814,20.7075,20.7075,0,0,1,1.4282-7.9815,17.0022,17.0022,0,0,1,3.8506-5.7881,15.854,15.854,0,0,1,5.61-3.5195,19.2768,19.2768,0,0,1,6.7065-1.1729,19.79,19.79,0,0,1,6.834,1.1729,15.57,15.57,0,0,1,5.61,3.5195,16.608,16.608,0,0,1,3.7739,5.7881A21.39,21.39,0,0,1,255.0426,47.6486Zm-26.979,0a16.0519,16.0519,0,0,0,.6372,4.6923,10.7016,10.7016,0,0,0,1.836,3.5957,8.1215,8.1215,0,0,0,2.9326,2.32,10.0493,10.0493,0,0,0,7.9306,0,8.074,8.074,0,0,0,2.9581-2.32,10.74,10.74,0,0,0,1.8359-3.5957,16.0688,16.0688,0,0,0,.6372-4.6923,16.33,16.33,0,0,0-.6372-4.7168,10.7132,10.7132,0,0,0-1.8359-3.6211A8.0858,8.0858,0,0,0,241.4,36.9894a9.3035,9.3035,0,0,0-3.9526-.8155,8.9911,8.9911,0,0,0-3.978.8418,8.3724,8.3724,0,0,0-2.9326,2.3457,10.6773,10.6773,0,0,0-1.836,3.6211A16.1239,16.1239,0,0,0,228.0636,47.6486Z"/><path d="M271.0553,30.003q.9215,1.6831,2.1221,4.1563t2.5058,5.3555q1.3038,2.8813,2.5831,5.89,1.2772,3.01,2.4033,5.6611,1.1235-2.6512,2.4033-5.6611,1.2774-3.0073,2.582-5.89t2.5059-5.3555q1.2012-2.4726,2.1221-4.1563h7.2421q.5084,3.5186.9434,7.879.4322,4.3608.7647,9.0781t.6123,9.4609q.28,4.7432.4843,8.9248h-7.7519q-.1539-5.15-.4082-11.22-.2564-6.0689-.7647-12.24-.9213,2.1416-2.0468,4.7431t-2.2256,5.2022q-1.1,2.6-2.1231,4.9716T283.27,60.8575h-5.5586q-.7178-1.683-1.74-4.0547-1.0224-2.37-2.123-4.9716t-2.2256-5.2022q-1.125-2.6016-2.0459-4.7431-.51,6.1713-.7646,12.24-.2564,6.0688-.4082,11.22h-7.752q.203-4.1806.4844-8.9248.28-4.7432.6123-9.4609t.7646-9.0781q.4329-4.3594.9439-7.879Z"/><path d="M318.027,29.5948q7.9042,0,12.1367,2.7793t4.2324,9.1036q0,6.3764-4.2832,9.206t-12.24,2.83h-2.498v11.832h-7.9561V30.5128a44.9806,44.9806,0,0,1,5.5078-.7139Q315.8327,29.5954,318.027,29.5948Zm.51,6.7832c-.58,0-1.1485.0176-1.709.0508s-1.0459.0684-1.4531.1016v10.2h2.498a13.5349,13.5349,0,0,0,6.2227-1.1221q2.0888-1.1206,2.09-4.1816a5.0165,5.0165,0,0,0-.5352-2.4483,4.0858,4.0858,0,0,0-1.5293-1.5556,6.9141,6.9141,0,0,0-2.4218-.8155A20,20,0,0,0,318.5368,36.378Z"/><path d="M360.5055,65.3458q-.59-1.8412-1.2685-3.7832-.68-1.9424-1.3526-3.8672H344.0807q-.6694,1.9352-1.3418,3.877-.6723,1.9438-1.2519,3.7734h-8.2627q1.995-5.7114,3.7851-10.5566t3.5039-9.1289q1.7139-4.2847,3.377-8.1348t3.4531-7.5225h7.542q1.7416,3.6725,3.4326,7.5225t3.4072,8.1348q1.7169,4.2831,3.51,9.1289t3.791,10.5566ZM350.9469,38.01q-.2666.769-.7793,2.0947t-1.167,3.0625q-.6562,1.7373-1.4648,3.8252-.81,2.0874-1.6445,4.38h10.1064q-.8115-2.3-1.5713-4.3936t-1.4453-3.832q-.6842-1.7373-1.2-3.06T350.9469,38.01Z"/><path d="M397.28,65.3458q-3.4175-6.0688-7.3945-11.9853a122.045,122.045,0,0,0-8.4668-11.169V65.3458h-7.8535V30.003h6.4765q1.6831,1.6831,3.7237,4.1309t4.1562,5.2275q2.1153,2.78,4.2071,5.7627,2.0917,2.984,3.9277,5.7373V30.003h7.9043V65.3458Z"/><path d="M425.0651,44.4991q2.1446-3.6123,4.0849-7.2226t3.5743-7.2735h8.7724q-2.9077,5.7115-6.0176,11.0665Q432.3665,46.425,428.9,51.8312V65.3458h-7.956V51.9327q-3.4687-5.4052-6.6045-10.8115-3.1377-5.4053-6.0439-11.1182h9.2314q1.6289,3.6623,3.5137,7.2735T425.0651,44.4991Z"/><path d="M205.7252,127.26q-8.6192,0-13.1323-4.794t-4.5137-13.6172a20.9381,20.9381,0,0,1,1.377-7.8281,16.87,16.87,0,0,1,3.7744-5.8144,15.7635,15.7635,0,0,1,5.7119-3.5948,20.59,20.59,0,0,1,7.1909-1.2246,23.0782,23.0782,0,0,1,4.08.3321,26.5648,26.5648,0,0,1,3.2129.7646,15.89,15.89,0,0,1,2.2949.8926q.9184.4586,1.3262.7139l-2.2949,6.4257a19.3508,19.3508,0,0,0-3.8-1.4785,18.1243,18.1243,0,0,0-4.9214-.6123,10.8634,10.8634,0,0,0-3.5952.6123A8.133,8.133,0,0,0,199.3248,100a9.7689,9.7689,0,0,0-2.1674,3.4942,14.6455,14.6455,0,0,0-.8159,5.2021,18.5749,18.5749,0,0,0,.5356,4.5645,9.6774,9.6774,0,0,0,1.7339,3.6464,8.3037,8.3037,0,0,0,3.1362,2.4219,11.1536,11.1536,0,0,0,4.6924.8926,21.2847,21.2847,0,0,0,3.1108-.2041,22.7059,22.7059,0,0,0,2.4483-.4844,12.7787,12.7787,0,0,0,1.8867-.6377q.8152-.356,1.479-.6631l2.1929,6.375a18.6082,18.6082,0,0,1-4.7427,1.837A27.7,27.7,0,0,1,205.7252,127.26Z"/><path d="M243.9752,91.2032h7.9561V126.546h-7.9561V111.5519H230.6134V126.546h-7.956V91.2032h7.956v13.5147h13.3618Z"/><path d="M283.8014,126.546q-.59-1.8413-1.2685-3.7832t-1.3526-3.8672H267.3776q-.6694,1.9351-1.3418,3.877-.673,1.9439-1.2529,3.7734h-8.2622q1.995-5.7114,3.7851-10.5566t3.5039-9.1289q1.7147-4.2848,3.3765-8.1348t3.4536-7.5225h7.5415q1.7416,3.6725,3.4326,7.5225t3.4082,8.1348q1.7154,4.2831,3.5088,9.1289t3.792,10.5566ZM274.2428,99.21q-.2666.7691-.7793,2.0947t-1.167,3.0625q-.6547,1.7373-1.4643,3.8252t-1.645,4.38h10.1064q-.8115-2.3-1.5713-4.3936t-1.4443-3.832q-.6857-1.7373-1.2012-3.0606T274.2428,99.21Z"/><path d="M320.4743,119.712v6.834H296.861V91.2032h7.956V119.712Z"/><path d="M349.1872,119.712v6.834H325.5739V91.2032h7.956V119.712Z"/><path d="M354.2868,126.546V91.2032h23.8681v6.6807H362.2428V104.82H376.37v6.5274h-14.127v8.5175h17.085v6.6807Z"/><path d="M408.9069,126.546q-3.4174-6.0689-7.3946-11.9853a122.0484,122.0484,0,0,0-8.4667-11.169V126.546H385.192V91.2032h6.4766q1.6832,1.6831,3.7236,4.1309t4.1563,5.2275q2.1151,2.78,4.207,5.7627,2.0917,2.9839,3.9277,5.7373V91.2032h7.9043V126.546Z"/><path d="M440.986,97.3234q-5.56,0-8.0332,3.0849-2.4741,3.0864-2.4737,8.44a16.9444,16.9444,0,0,0,.6124,4.7178,10.3832,10.3832,0,0,0,1.8359,3.6465,8.267,8.267,0,0,0,3.0605,2.3711,10.18,10.18,0,0,0,4.2832.8418q1.3257,0,2.27-.0508a10.7294,10.7294,0,0,0,1.6582-.2041V107.88h7.956v17.4932a29.97,29.97,0,0,1-4.59,1.1982,40.3434,40.3434,0,0,1-7.8037.6377,20.2844,20.2844,0,0,1-7.2158-1.2236,15.0831,15.0831,0,0,1-5.5342-3.57,15.934,15.934,0,0,1-3.544-5.7627,22.6128,22.6128,0,0,1-1.25-7.8038,20.8882,20.8882,0,0,1,1.377-7.8535,16.9182,16.9182,0,0,1,3.7744-5.789,15.89,15.89,0,0,1,5.6357-3.5948,19.3685,19.3685,0,0,1,6.91-1.2246,27.9955,27.9955,0,0,1,4.5137.3321,28.59,28.59,0,0,1,3.4677.7646,16.1938,16.1938,0,0,1,2.3975.8926q.9418.4586,1.3506.7139l-2.2949,6.375a20.8,20.8,0,0,0-3.7481-1.5049A15.9846,15.9846,0,0,0,440.986,97.3234Z"/><path d="M459.55,126.546V91.2032h23.8681v6.6807H467.5055V104.82h14.127v6.5274h-14.127v8.5175h17.085v6.6807Z"/><path d="M500.0934,120.4767a11.4508,11.4508,0,0,0,2.7793-.28,5.1128,5.1128,0,0,0,1.76-.7646,2.5631,2.5631,0,0,0,.9179-1.1475,4.0882,4.0882,0,0,0,.2549-1.48,3.4159,3.4159,0,0,0-1.6318-2.8809,23.2887,23.2887,0,0,0-5.6094-2.4736q-1.7343-.6123-3.4687-1.4023a12.7925,12.7925,0,0,1-3.11-1.9893,9.492,9.492,0,0,1-2.2441-2.9072,9.0894,9.0894,0,0,1-.8672-4.1563,10.2933,10.2933,0,0,1,.9179-4.4121,9.4406,9.4406,0,0,1,2.6006-3.34,11.9186,11.9186,0,0,1,4.08-2.1172,18.3371,18.3371,0,0,1,5.4063-.7393,21.6338,21.6338,0,0,1,10.455,2.4483l-2.2949,6.2724a21.7454,21.7454,0,0,0-3.29-1.35,14.2512,14.2512,0,0,0-4.36-.587,8.0053,8.0053,0,0,0-4.1054.79,2.6692,2.6692,0,0,0-1.2491,2.4228,2.7907,2.7907,0,0,0,.459,1.6319,4.4557,4.4557,0,0,0,1.3008,1.1992,11.446,11.446,0,0,0,1.9375.9687q1.0957.4337,2.4229.8926,2.7538,1.0211,4.7939,2.0147a12.8032,12.8032,0,0,1,3.3916,2.32,8.4031,8.4031,0,0,1,2.0137,3.11,12.4982,12.4982,0,0,1,.6631,4.335,9.2064,9.2064,0,0,1-3.4678,7.6758Q507.08,127.26,500.0934,127.26a29.0138,29.0138,0,0,1-4.2324-.28,27.4713,27.4713,0,0,1-3.3408-.6885,19.1046,19.1046,0,0,1-2.4991-.8672,18.7059,18.7059,0,0,1-1.76-.8671l2.2441-6.3243a19.932,19.932,0,0,0,3.9014,1.5557A20.2346,20.2346,0,0,0,500.0934,120.4767Z"/><path d="M79.834,159.668a6,6,0,0,1,0-12,68.3293,68.3293,0,0,0,62.1875-40.7041H129.7007a56.7593,56.7593,0,1,1,0-54.2608l12.3208.001A67.8431,67.8431,0,0,0,12,79.834a6,6,0,0,1-12,0A79.8471,79.8471,0,0,1,156.3506,56.99a6,6,0,0,1-5.75,7.7139h0L126,64.7031a5.9992,5.9992,0,0,1-5.4541-3.5,44.7593,44.7593,0,1,0,0,37.2608,6,6,0,0,1,5.4541-3.5h24.6006a6,6,0,0,1,5.75,7.7138A80.4517,80.4517,0,0,1,127.9678,143.53,79.1342,79.1342,0,0,1,79.834,159.668Z"/></g></g></svg>