<svg xmlns="http://www.w3.org/2000/svg" width="46.253mm" height="46.253mm" viewBox="0 0 131.1108 131.1108"><defs><style>.cls-1{fill:#f4f4f4;}.cls-2{fill:#909090;}.cls-3{fill:#8f8f8f;}</style></defs><g id="Layer_2" data-name="Layer 2"><g id="Layer_1-2" data-name="Layer 1"><rect class="cls-1" width="131.1108" height="131.1108" rx="12"/><path class="cls-2" d="M60.5078,24.0039q17.21-.0014,34.4207.0019c5.3666.0043,7.072,1.5356,7.0909,6.8732.0086,2.446.7472,3.2806,3.2447,3.2862,5.2733.0119,7.2918,2.0594,7.3072,7.3434q.0854,29.444.0016,58.8882c-.0116,4.4957-2.3505,6.7019-6.8459,6.7046q-34.7756.0213-69.5509-.0025c-5.24-.0026-7.1573-1.75-7.0771-6.97.0425-2.768-.7821-3.7-3.6145-3.64-5.1675.1109-6.9456-1.8-6.9561-7.0963q-.0573-29.0893-.0055-58.179c.01-5.4644,1.8112-7.2006,7.2095-7.2057Q43.12,23.9918,60.5078,24.0039ZM34.5489,101.5053q34.5771.0271,69.1541.0881c2.2823.0073,3.4262-.4338,3.4131-3.0883q-.1386-28.0083-.0176-56.0177c.0069-2.1809-.803-2.8593-2.91-2.8549q-33.5139.07-67.028.0058c-1.6-.0022-2.8176.2681-3.0614,2.1031-.996.92-.8513,2.1391-.8516,3.31q-.0063,26.5721.01,53.1441C33.2585,99.43,32.8637,100.8947,34.5489,101.5053ZM60.2557,29.1014c-10.88,0-21.7608.0812-32.639-.0563-2.7715-.0351-3.6479.77-3.6305,3.5953.1141,18.4425.0609,36.8861.0532,55.3293-.0007,1.8058-.2767,3.569,2.5529,3.5318,2.8956-.0381,2.4337-1.9481,2.4352-3.6617q.02-23.0539.0108-46.1081c.0031-5.9223,1.6921-7.62,7.5632-7.6209q28.0276-.0051,56.0551-.01c1.7921-.0018,3.9261.5868,3.8876-2.5575-.0394-3.2188-2.2953-2.4083-4.0036-2.4161C81.7791,29.078,71.0174,29.1022,60.2557,29.1014Z"/><path class="cls-3" d="M34.0986,41.7414c.9067,5.985.424,12.0093.4532,18.0143.0677,13.9162.0069,27.833-.0023,41.75-1.6858-.6105-1.291-2.0749-1.2924-3.31q-.0288-26.572-.01-53.1441C33.2473,43.8805,33.1026,42.6613,34.0986,41.7414Z"/><path class="cls-3" d="M102.03,65.3244c0,10.5639.0379,19.9773-.0256,29.39-.0167,2.4664-2.0781,1.8077-3.4628,1.8112q-23.7512.0585-47.5027.0243c-2.9542,0-5.9085.0144-8.8624-.013-1.0425-.01-2.4927.1081-2.4445-1.3448.1264-3.81-1.0464-7.6932,1.1806-11.3932q7.7633-12.8979,15.1453-26.0227c1.4826-2.6483,2.3679-2.1094,3.8755-.1949q8.2157,10.4333,16.57,20.7568c2.8044,3.4641,5.9995,3.6406,9.3511.7636C90.9426,74.7343,96.0623,70.4038,102.03,65.3244Z"/><path class="cls-3" d="M88.7453,60.271a7.8028,7.8028,0,1,1,.4762-15.5933A7.8381,7.8381,0,0,1,96.78,52.5044,8.0447,8.0447,0,0,1,88.7453,60.271Z"/></g></g></svg>