<svg xmlns="http://www.w3.org/2000/svg" xmlns:xlink="http://www.w3.org/1999/xlink" width="23.031" height="23.048" viewBox="0 0 23.031 23.048">
  <defs>
    <clipPath id="clip-path">
      <rect id="Rectangle_492" data-name="Rectangle 492" width="23.031" height="23.048"/>
    </clipPath>
  </defs>
  <g id="Group_1073" data-name="Group 1073" clip-path="url(#clip-path)">
    <path id="Path_1130" data-name="Path 1130" d="M.043,9.625a11.451,11.451,0,0,1,.025-2.24A9.378,9.378,0,0,1,2.152,2.871l.72-.72A9.5,9.5,0,0,1,7.388.079,10.8,10.8,0,0,1,9.622.038l2.249.586.314.124,1.942,1.245.881.873,1.252,1.79.183.448a14.88,14.88,0,0,1,.643,2.283,15.433,15.433,0,0,1,.069,2.25l-.6,2.26a.549.549,0,0,0-.166.4l-1.176,1.862c.266.612.787.27,1.2.323q3.232,3.213,6.46,6.431a1.1,1.1,0,0,1,.155.329l-1.8,1.8c-.316-.019-.46-.283-.65-.471C18.781,20.8,17,19,15.195,17.227a1.733,1.733,0,0,1-.7-1.474c.044-.49-.214-.707-.7-.356-.423.306-.864.587-1.3.88a1.254,1.254,0,0,0-.615.275l-2.248.611-2.257-.009L5.126,16.53l-.606-.3L2.85,15.056l-.883-.9L.735,12.2.6,11.892.043,9.625M3.837,5.092a4.284,4.284,0,0,0-1,2.277A4.5,4.5,0,0,0,2.8,9.646a4.218,4.218,0,0,0,.9,2.267,4.361,4.361,0,0,0,1.236,1.359,5.906,5.906,0,0,0,7.114.139,4.637,4.637,0,0,0,1.345-1.374A5.822,5.822,0,0,0,13.24,4.97,3.651,3.651,0,0,0,11.9,3.728,3.977,3.977,0,0,0,9.638,2.8a4.563,4.563,0,0,0-2.272.033A4.124,4.124,0,0,0,5.094,3.858,3.288,3.288,0,0,0,3.837,5.092" transform="translate(0 -0.001)"/>
  </g>
</svg>
