<svg xmlns="http://www.w3.org/2000/svg" width="532.5293" height="163.503" viewBox="0 0 532.5293 163.503"><defs><style>.cls-1{fill:#1c395c;}</style></defs><g id="Layer_2" data-name="Layer 2"><g id="Capa_1" data-name="Capa 1"><path class="cls-1" d="M.192,29.3837a2.4763,2.4763,0,0,1,.5-.7652L28.1065.66a2.1412,2.1412,0,0,1,3.1582.0724A2.5,2.5,0,0,1,31.1874,4.1L7.6707,28.0828l43.6832,1.0021C82.1013,29.79,106.5,57.0694,105.7464,89.9a2.2358,2.2358,0,1,1-4.4608-.1026c.6928-30.2012-21.7559-55.3009-50.041-55.95L7.5617,32.8456,29.9539,57.8819a2.5,2.5,0,0,1-.0773,3.3674,2.1336,2.1336,0,0,1-3.1537-.0724L.6188,31.9905A2.2857,2.2857,0,0,1,.15,31.2031,2.5126,2.5126,0,0,1,.192,29.3837Z"/><path class="cls-1" d="M57.4355,128.335a1.9239,1.9239,0,0,1-2.5561.1421,15.1621,15.1621,0,0,0-1.3492-.8877,19.202,19.202,0,0,0-1.7041-.8872,14.8468,14.8468,0,0,0-1.8457-.71,6.0421,6.0421,0,0,0-1.7749-.2842,5.742,5.742,0,0,0-2.2368.4971,5.8172,5.8172,0,0,0-2.0234,1.42,3.6017,3.6017,0,0,0-1.1714,3.4434,5.8647,5.8647,0,0,0,2.4492,3.0888q1.2781.9237,2.769,1.8814t2.9468,1.8813q1.4547.9237,2.7691,1.7749,1.3125.8526,2.3071,1.4912a23.227,23.227,0,0,1,2.4141,1.8462,11.9747,11.9747,0,0,1,1.9882,2.2364,10.6523,10.6523,0,0,1,1.3492,2.8047,11.724,11.724,0,0,1,.4965,3.55,9.6154,9.6154,0,0,1-3.0883,6.2124,12.2621,12.2621,0,0,1-5.9995,2.9467,12.8542,12.8542,0,0,1-5.8575-.2133,9.9142,9.9142,0,0,1-4.8632-2.982,4.7833,4.7833,0,0,1-.8521-1.562,1.6625,1.6625,0,0,1-.0713-1.42,2.3373,2.3373,0,0,1,1.4912-.8872,2.1538,2.1538,0,0,1,1.6328.1064,9.9128,9.9128,0,0,0,3.834,2.1656,8.6844,8.6844,0,0,0,4.6153.1064,5.8851,5.8851,0,0,0,2.9819-1.5977,5.1637,5.1637,0,0,0,1.42-2.6626,5.0344,5.0344,0,0,0-.3906-3.23,7.5437,7.5437,0,0,0-2.6626-3.0176,61.6529,61.6529,0,0,0-6.2124-4.1177,77.1915,77.1915,0,0,1-6.7095-4.4023,8.8624,8.8624,0,0,1-2.3784-3.124,8.2842,8.2842,0,0,1-.7456-3.337,7.568,7.568,0,0,1,.71-3.23,9.3427,9.3427,0,0,1,1.9883-2.7691,10.56,10.56,0,0,1,2.982-2.0234,10.579,10.579,0,0,1,9.23.2485,13.36,13.36,0,0,1,4.26,3.2305,1.4777,1.4777,0,0,1,.32,1.0649A2.1937,2.1937,0,0,1,57.4355,128.335Z"/><path class="cls-1" d="M84.3432,141.896a24.6454,24.6454,0,0,1-5.9638,2.5205,25.6224,25.6224,0,0,1-6.8868.8877,6.33,6.33,0,0,0,1.42,3.94,5.12,5.12,0,0,0,3.1948,1.7393,7.5421,7.5421,0,0,0,2.3076-.0708,9.5215,9.5215,0,0,0,2.2012-.6743,12.8512,12.8512,0,0,0,1.8813-1.03,13.4617,13.4617,0,0,0,1.4907-1.1357,3.2064,3.2064,0,0,1,1.3492-.7457,1.8431,1.8431,0,0,1,1.0649-.0356q.9939.356.71,2.13a10.87,10.87,0,0,1-3.2657,3.87,10.6626,10.6626,0,0,1-4.7573,2.0235,10.5346,10.5346,0,0,1-4.686-.2129,9.7837,9.7837,0,0,1-4.3311-2.4849,10.9251,10.9251,0,0,1-2.4848-3.834,16.7231,16.7231,0,0,1-1.065-4.5439,10.72,10.72,0,0,1,.3906-4.189,9.8768,9.8768,0,0,1,1.8814-3.5146,10.2808,10.2808,0,0,1,3.1948-2.5206,10.9537,10.9537,0,0,1,4.4732-1.1362A9.9292,9.9292,0,0,1,82,134.0151a7.4573,7.4573,0,0,1,3.4791,3.7627,3.74,3.74,0,0,1,.3193,2.3433A3.0866,3.0866,0,0,1,84.3432,141.896Zm-8.1645-4.8281a7.6649,7.6649,0,0,0-1.5269.4971,6.7276,6.7276,0,0,0-1.4907.8876,7.2549,7.2549,0,0,0-1.207,1.2071,2.7812,2.7812,0,0,0-.6036,1.5263,18.5171,18.5171,0,0,0,2.6626-.2128q1.454-.2132,2.84-.5328a21.8583,21.8583,0,0,0,2.5561-.7456,10.0639,10.0639,0,0,0,1.9522-.9228,2.7342,2.7342,0,0,0-2.0942-1.6685A7.9926,7.9926,0,0,0,76.1787,137.0679Z"/><path class="cls-1" d="M98.0463,125.353q.3546,7.74,1.2071,16.0108T101.1,157.1611q.2124,3.1252-1.7041,3.1949a1.4159,1.4159,0,0,1-.8521-.3194,3.6652,3.6652,0,0,1-.7812-.8164,11.3067,11.3067,0,0,1-.6743-1.0649,3.1616,3.1616,0,0,1-.3907-.9942q-.5691-3.621-1.0649-7.6679-.4974-4.0474-.8872-8.1294T94.07,133.376q-.2843-3.9039-.355-7.1709a14.0231,14.0231,0,0,1,.4971-2.8755,1.3558,1.3558,0,0,1,1.4912-1.1006,2.0233,2.0233,0,0,1,1.7392.9585A4.6616,4.6616,0,0,1,98.0463,125.353Z"/><path class="cls-1" d="M124.103,141.896a24.6444,24.6444,0,0,1-5.9639,2.5205,25.6217,25.6217,0,0,1-6.8867.8877,6.33,6.33,0,0,0,1.42,3.94,5.12,5.12,0,0,0,3.1948,1.7393,7.5427,7.5427,0,0,0,2.3077-.0708,9.5222,9.5222,0,0,0,2.2011-.6743,12.8472,12.8472,0,0,0,1.8814-1.03,13.4711,13.4711,0,0,0,1.4907-1.1357,3.2067,3.2067,0,0,1,1.3491-.7457,1.8435,1.8435,0,0,1,1.065-.0356q.9939.356.71,2.13a10.87,10.87,0,0,1-3.2656,3.87,10.6626,10.6626,0,0,1-4.7573,2.0235,10.535,10.535,0,0,1-4.6861-.2129,9.7839,9.7839,0,0,1-4.331-2.4849,10.9254,10.9254,0,0,1-2.4849-3.834,16.7266,16.7266,0,0,1-1.0649-4.5439,10.72,10.72,0,0,1,.3906-4.189,9.8768,9.8768,0,0,1,1.8814-3.5146,10.2808,10.2808,0,0,1,3.1948-2.5206,10.9532,10.9532,0,0,1,4.4731-1.1362,9.9294,9.9294,0,0,1,5.5381,1.1362,7.4571,7.4571,0,0,1,3.479,3.7627,3.74,3.74,0,0,1,.3194,2.3433A3.087,3.087,0,0,1,124.103,141.896Zm-8.1646-4.8281a7.662,7.662,0,0,0-1.5268.4971,6.7254,6.7254,0,0,0-1.4907.8876,7.2593,7.2593,0,0,0-1.2071,1.2071,2.7811,2.7811,0,0,0-.6035,1.5263,18.5171,18.5171,0,0,0,2.6626-.2128q1.4538-.2132,2.84-.5328a21.8583,21.8583,0,0,0,2.5561-.7456,10.0639,10.0639,0,0,0,1.9522-.9228,2.7342,2.7342,0,0,0-2.0943-1.6685A7.9925,7.9925,0,0,0,115.9384,137.0679Z"/><path class="cls-1" d="M148.1723,140.334a1.8278,1.8278,0,0,1-1.207.1777,1.7465,1.7465,0,0,1-1.207-.8877,3.3833,3.3833,0,0,0-2.7691-1.4912,5.2433,5.2433,0,0,0-2.6626.6748,7.34,7.34,0,0,0-2.0591,1.7749,10.1548,10.1548,0,0,0-1.4555,2.45,11.5891,11.5891,0,0,0-.7808,2.6978,5.6061,5.6061,0,0,0,.8521,4.189,4.294,4.294,0,0,0,3.7627,1.7041,13.1038,13.1038,0,0,0,4.6508-.8164,23.5092,23.5092,0,0,0,4.8633-2.3077,5.9955,5.9955,0,0,1,1.8462-.497,1.4938,1.4938,0,0,1,1.42.852,1.7728,1.7728,0,0,1-.3549,2.3076,10.0582,10.0582,0,0,1-2.84,2.0943,28.1347,28.1347,0,0,1-3.7275,1.74,19.87,19.87,0,0,1-3.94,1.065,12.9486,12.9486,0,0,1-3.94.0356,9.3688,9.3688,0,0,1-3.6562-1.3491,7.5885,7.5885,0,0,1-3.2661-5.2539,15.5691,15.5691,0,0,1,.497-7.0293,14.3545,14.3545,0,0,1,1.2071-2.7334,12.2655,12.2655,0,0,1,4.331-4.4732,8.5324,8.5324,0,0,1,2.9819-1.1,9.36,9.36,0,0,1,5.0411.5323,5.23,5.23,0,0,1,3.1948,3.5146,2.4626,2.4626,0,0,1,0,1.1714A1.4742,1.4742,0,0,1,148.1723,140.334Z"/><path class="cls-1" d="M173.6611,139.5532a5.1613,5.1613,0,0,1,2.6982.6387,2.3349,2.3349,0,0,1,1.3492,2.2012,1.6623,1.6623,0,0,1-1.3135,1.5263,7.5729,7.5729,0,0,1-1.8819.32q-1.4208,0-3.0527.0708-1.6339.0717-3.3369.2129-.1435,2.343-.2485,4.4023-.107,2.06-.1778,3.6563t-.0708,2.5913a3.5213,3.5213,0,0,0,.0708,1.0654,19.9049,19.9049,0,0,0,3.3726-.9585q1.8105-.6746,3.6211-1.4912t3.55-1.7041q1.7388-.8869,3.3017-1.6685a1.9241,1.9241,0,0,1,1.3135-.2129.9173.9173,0,0,1,.7451.6392,4.1033,4.1033,0,0,1-.2129,1.917,5.0112,5.0112,0,0,1-1.2778,2.0586,31.7327,31.7327,0,0,1-2.8047,1.9526,42.5581,42.5581,0,0,1-3.7275,2.0947,39.4545,39.4545,0,0,1-4.0112,1.7393,14.3184,14.3184,0,0,1-3.5855.8877,3.8159,3.8159,0,0,1-3.55-1.2783,6.4459,6.4459,0,0,1-1.3486-3.7627q-.1436-2.2721-.0357-5.2539.1062-2.9824.2486-6.3194-1.35.1436-2.5918.2486-1.2429.107-2.3784.2485a5.65,5.65,0,0,1-2.0235-.4258,1.6047,1.6047,0,0,1-1.1006-1.6333,2.7422,2.7422,0,0,1,.355-1.1357,2.3719,2.3719,0,0,1,1.562-1.065q2.9108-.4958,6.461-.852.2132-3.3369.497-6.4609t.4971-5.68a3.0994,3.0994,0,0,1,.4971-1.4912,1.1661,1.1661,0,0,1,.9228-.6387,3.9029,3.9029,0,0,1,2.3076.6035,1.8757,1.8757,0,0,1,1.1006,1.5264q-.2849,2.4147-.5327,5.4668-.249,3.0542-.4614,6.248,1.4195-.1413,2.7334-.1772T173.6611,139.5532Z"/><path class="cls-1" d="M208.8764,145.6592a5.7686,5.7686,0,0,1-2.3076-.2129,2.5722,2.5722,0,0,1-1.8105-1.7754,2.7633,2.7633,0,0,1-.0708-1.3843q.1413-.6738,1.4912-.9585,1.2773-.2826,2.7334-.5327,1.4538-.2475,2.9463-.4614l-2.627-7.9522a14.81,14.81,0,0,1-.2842-7.8095q.9222-3.2652,5.2544-4.6861a8.9176,8.9176,0,0,1,6.8159.4966,10.9147,10.9147,0,0,1,2.84,2.0591,10.1868,10.1868,0,0,1,2.0591,2.9819,5.0562,5.0562,0,0,1,.3193,1.3848,1.404,1.404,0,0,1-.4614,1.1006,1.8233,1.8233,0,0,1-1.562.6035,1.6954,1.6954,0,0,1-1.1358-.4614q-.6393-.7807-1.3847-1.5977a10.9731,10.9731,0,0,0-1.5621-1.42,6.5212,6.5212,0,0,0-1.7392-.9233,4.2829,4.2829,0,0,0-1.9883-.1773,3.1355,3.1355,0,0,0-1.1714.4971,3.5532,3.5532,0,0,0-1.1714,1.3135,5.5636,5.5636,0,0,0-.6035,2.3076,11.0046,11.0046,0,0,0,.4614,3.55q.4959,1.7754,1.1363,3.834.6387,2.06,1.42,4.331a41.0106,41.0106,0,0,1,6.248-.2129,13.8235,13.8235,0,0,1,2.9107.5679,5.3162,5.3162,0,0,1,2.2012,1.2778,1.4038,1.4038,0,0,1-.0708,1.1714,2.3572,2.3572,0,0,1-.8169.7813,3.8717,3.8717,0,0,1-1.2071.4614,13.1692,13.1692,0,0,1-1.3134.2129q-1.4209.1435-2.982.32-1.5622.1781-3.2661.3193,1.1352,3.1949,2.0947,6.07t1.5264,4.7924A5.2271,5.2271,0,0,1,221.87,157.8a18.8212,18.8212,0,0,1-.5684,2.3428,8.0746,8.0746,0,0,1-1.42,2.6269,1.6,1.6,0,0,1-1.8457.6392,1.7427,1.7427,0,0,1-.9941-.9234,3.2455,3.2455,0,0,1-.0708-1.562,18.37,18.37,0,0,0,.1416-2.2719,18.98,18.98,0,0,0-.1065-2.0943,14.3644,14.3644,0,0,0-.2837-1.7041q-.1787-.7455-.2485-1.0293l-2.9819-8.6621q-1.1369.1428-2.2725.2486T208.8764,145.6592Z"/><path class="cls-1" d="M244.6591,129.6133a.9628.9628,0,0,1-.9936.7808q-.8526.0717-1.42.0708a33.1711,33.1711,0,0,0-7.5967,1.207,2.3571,2.3571,0,0,1-1.8462-.2129,2.412,2.412,0,0,1-1.207-1.9878,1.1472,1.1472,0,0,1,.4262-.9233,5.1064,5.1064,0,0,1,.9937-.6387,12.5034,12.5034,0,0,1,2.2012-.7456,19.2526,19.2526,0,0,1,2.5913-.4614,18.5194,18.5194,0,0,1,2.52-.1065,8.7572,8.7572,0,0,1,1.9883.2485,4.1675,4.1675,0,0,1,1.8105,1.065A1.955,1.955,0,0,1,244.6591,129.6133Zm-1.6328,23.6426a6.5225,6.5225,0,0,1,.5323,2.45,1.9117,1.9117,0,0,1-.7452,1.81,1.855,1.855,0,0,1-2.13-.0713,4.4337,4.4337,0,0,1-1.7036-1.917,13.4666,13.4666,0,0,1-1.2071-3.6562q-.4263-2.1651-.6391-4.2954t-.2486-3.9761q-.0366-1.8458-.0356-2.769a4.2012,4.2012,0,0,1,.5683-1.8462,1.8666,1.8666,0,0,1,1.2779-.9937,2.6043,2.6043,0,0,1,2.0591,1.1714,4.28,4.28,0,0,1,.71,2.7334q0,1.2782.0708,2.84t.2842,3.1241q.2131,1.563.4971,3.0176A10.5416,10.5416,0,0,0,243.0263,153.2559Z"/><path class="cls-1" d="M271.1416,134.0859q-1.2782.7105-2.6626,1.4913a26.5794,26.5794,0,0,0-2.7691,1.81,17.8022,17.8022,0,0,0-2.6269,2.4141,15.7734,15.7734,0,0,0-2.2364,3.3012,18.7924,18.7924,0,0,0-1.917,5.5025,44.921,44.921,0,0,0-.6391,5.5024,6.1889,6.1889,0,0,1-.6035,2.5918,1.86,1.86,0,0,1-1.6685,1.3135,2.446,2.446,0,0,1-2.1655-1.3848,9.1828,9.1828,0,0,1-1.1006-2.6626q-1.2078-5.04-1.9878-9.9751-.7823-4.9343-1.3491-9.8335,0-.9939.6035-1.2783a2.653,2.653,0,0,1,1.3843-.2129,4.9294,4.9294,0,0,1,1.6333.4263,1.4989,1.4989,0,0,1,.9228,1.1357q.2827,2.628.71,5.5025t.852,4.9345a12.4633,12.4633,0,0,1,1.5621-4.686,18.3578,18.3578,0,0,1,3.16-4.1182,18.638,18.638,0,0,1,4.26-3.124,15.9144,15.9144,0,0,1,4.8638-1.7036,5.5542,5.5542,0,0,1,1.7749,0,1.6491,1.6491,0,0,1,.9936.4971,1.3384,1.3384,0,0,1,.1069,1.1357A2.4548,2.4548,0,0,1,271.1416,134.0859Z"/><path class="cls-1" d="M288.6782,137.3521q-.1428-.7808-.2842-1.4913a1.1382,1.1382,0,0,0-.71-.9228,5.1711,5.1711,0,0,0-2.5556-.0708,9.4176,9.4176,0,0,0-2.4854.8872,8.61,8.61,0,0,0-1.917,1.3491,2.263,2.263,0,0,0-.2837,3.3726,9.6817,9.6817,0,0,0,2.272,1.9878q2.4845,1.4912,5.1831,3.0532a28.2156,28.2156,0,0,1,4.544,3.1948,8.5568,8.5568,0,0,1,2.5205,3.5855,6.2628,6.2628,0,0,1-.32,4.4375,6.3692,6.3692,0,0,1-2.9107,3.124,19.5745,19.5745,0,0,1-4.686,1.8818,32.159,32.159,0,0,1-5.1123.9229q-2.5562.25-4.3311.2485a2.2962,2.2962,0,0,1-1.0293-.3193,7.2586,7.2586,0,0,1-1.1362-.7456,6.5493,6.5493,0,0,1-.9229-.8877,1.3434,1.3434,0,0,1-.3906-.8164,1.7832,1.7832,0,0,1,1.1362-1.7749,5.7947,5.7947,0,0,1,2.3428-.4971q1.7043,0,3.6568-.1777a29.7165,29.7165,0,0,0,3.7275-.5679,16.3355,16.3355,0,0,0,3.1948-1.0293,4.1377,4.1377,0,0,0,1.9883-1.6333q.4959-.8518-.6035-2.0234a19.24,19.24,0,0,0-2.9112-2.4493q-1.81-1.278-3.9052-2.4853t-3.5855-2.2007a10.6581,10.6581,0,0,1-2.5556-2.3784,7.1249,7.1249,0,0,1-1.3492-3.4439,7.201,7.201,0,0,1,.7808-3.55,10.7751,10.7751,0,0,1,2.2368-3.0175,10.99,10.99,0,0,1,3.1592-2.0948,8.4551,8.4551,0,0,1,8.5913.8877,6.3437,6.3437,0,0,1,2.3428,4.5083,3.6488,3.6488,0,0,1-.3194,1.6333,1.436,1.436,0,0,1-1.1005.7808,2.2759,2.2759,0,0,1-1.5977-.2485A1.3694,1.3694,0,0,1,288.6782,137.3521Z"/><path class="cls-1" d="M315.5864,139.5532a5.1613,5.1613,0,0,1,2.6982.6387,2.3349,2.3349,0,0,1,1.3492,2.2012,1.6624,1.6624,0,0,1-1.3135,1.5263,7.5729,7.5729,0,0,1-1.8819.32q-1.4208,0-3.0527.0708-1.6341.0717-3.3369.2129-.1436,2.343-.2485,4.4023-.1069,2.06-.1778,3.6563t-.0708,2.5913a3.5213,3.5213,0,0,0,.0708,1.0654,19.91,19.91,0,0,0,3.3726-.9585q1.81-.6746,3.6211-1.4912t3.55-1.7041q1.7388-.8869,3.3017-1.6685a1.9241,1.9241,0,0,1,1.3135-.2129.9173.9173,0,0,1,.7451.6392,4.1033,4.1033,0,0,1-.2129,1.917,5.0112,5.0112,0,0,1-1.2778,2.0586,31.7477,31.7477,0,0,1-2.8047,1.9526,42.5581,42.5581,0,0,1-3.7275,2.0947,39.4464,39.4464,0,0,1-4.0113,1.7393,14.3167,14.3167,0,0,1-3.5854.8877,3.8159,3.8159,0,0,1-3.55-1.2783,6.4459,6.4459,0,0,1-1.3486-3.7627q-.1435-2.2721-.0357-5.2539.1062-2.9824.2486-6.3194-1.35.1436-2.5918.2486-1.2429.107-2.3785.2485a5.65,5.65,0,0,1-2.0234-.4258,1.6047,1.6047,0,0,1-1.1006-1.6333,2.7422,2.7422,0,0,1,.355-1.1357,2.3719,2.3719,0,0,1,1.562-1.065q2.9106-.4958,6.461-.852.213-3.3369.497-6.4609t.4971-5.68a3.0994,3.0994,0,0,1,.4971-1.4912,1.166,1.166,0,0,1,.9228-.6387,3.9029,3.9029,0,0,1,2.3076.6035,1.8757,1.8757,0,0,1,1.1006,1.5264q-.2848,2.4147-.5327,5.4668-.249,3.0542-.4614,6.248,1.4194-.1413,2.7334-.1772T315.5864,139.5532Z"/><path class="cls-1" d="M366.0669,132.311q.2826,1.9885.4614,4.2247.1766,2.2361.2842,4.5083t.1064,4.4023q0,2.13-.0713,3.834a7.1556,7.1556,0,0,1,2.7334,2.7685,2.9287,2.9287,0,0,1,.1069,2.13,1.6342,1.6342,0,0,1-1.5268,1.3135,5.0068,5.0068,0,0,1-2.52-.7456q-.9946.71-2.272,1.5263-1.278.8175-2.6977,1.5621a30.3888,30.3888,0,0,1-2.84,1.3134,13.3943,13.3943,0,0,1-2.6269.7813,5.5528,5.5528,0,0,1-4.0825-.8521,5.9965,5.9965,0,0,1-2.4493-3.6211,8.9357,8.9357,0,0,1-.2129-3.3725,9.4768,9.4768,0,0,1,1.065-3.3369,10.2053,10.2053,0,0,1,2.3071-2.8755,10.51,10.51,0,0,1,3.4439-1.9878,6.0853,6.0853,0,0,1,1.3842-.355,9.4986,9.4986,0,0,1,1.8462-.1069,6.5428,6.5428,0,0,1,1.9522.3906,4.9935,4.9935,0,0,1,1.8462,1.207q0-1.2063-.0357-2.6626-.0366-1.4538-.1064-2.9463t-.1773-2.8046q-.107-1.3125-.2485-2.2364a1.4475,1.4475,0,0,0-.8164-1.3134,2.4509,2.4509,0,0,0-1.6685.1064,15.6345,15.6345,0,0,0-3.976,2.2012,51.47,51.47,0,0,0-4.3311,3.479,1.7709,1.7709,0,0,1-1.4556.5678,2.1527,2.1527,0,0,1-1.3842-.6391,2.0869,2.0869,0,0,1-.6392-1.3135,2.3272,2.3272,0,0,1,.5679-1.5977q1.2063-1.2773,2.6982-2.6269a27.9215,27.9215,0,0,1,3.124-2.4492,19.1577,19.1577,0,0,1,3.337-1.8106,9.9128,9.9128,0,0,1,3.4077-.7812,5.4281,5.4281,0,0,1,3.834,1.1006A4.8434,4.8434,0,0,1,366.0669,132.311Zm-8.2364,15.2652a6.1336,6.1336,0,0,0-1.9521.8872,8.6142,8.6142,0,0,0-1.8462,1.6333,6.3418,6.3418,0,0,0-1.207,2.13,3.66,3.66,0,0,0-.0357,2.3076,1.0646,1.0646,0,0,0,.6035.6387,1.5127,1.5127,0,0,0,1.03.0713,17.5338,17.5338,0,0,0,3.87-1.3848,13.3119,13.3119,0,0,0,3.4434-2.2363,2.2461,2.2461,0,0,0-.4263-1.1006,12.49,12.49,0,0,0-.9936-1.3492,7.3237,7.3237,0,0,0-1.2427-1.1713A1.7667,1.7667,0,0,0,357.8305,147.5762Z"/><path class="cls-1" d="M410.0156,140.334a1.8278,1.8278,0,0,1-1.207.1777,1.7467,1.7467,0,0,1-1.2071-.8877,3.383,3.383,0,0,0-2.769-1.4912,5.2428,5.2428,0,0,0-2.6626.6748,7.3387,7.3387,0,0,0-2.0591,1.7749,10.1551,10.1551,0,0,0-1.4556,2.45,11.5888,11.5888,0,0,0-.7807,2.6978,5.6066,5.6066,0,0,0,.852,4.189,4.2941,4.2941,0,0,0,3.7627,1.7041,13.1039,13.1039,0,0,0,4.6509-.8164,23.5116,23.5116,0,0,0,4.8633-2.3077,5.9955,5.9955,0,0,1,1.8462-.497,1.4939,1.4939,0,0,1,1.42.852,1.7728,1.7728,0,0,1-.355,2.3076,10.0562,10.0562,0,0,1-2.84,2.0943,28.13,28.13,0,0,1-3.7276,1.74,19.8692,19.8692,0,0,1-3.94,1.065,12.9486,12.9486,0,0,1-3.94.0356,9.3693,9.3693,0,0,1-3.6563-1.3491,7.5885,7.5885,0,0,1-3.2661-5.2539,15.5678,15.5678,0,0,1,.4971-7.0293,14.3539,14.3539,0,0,1,1.207-2.7334,12.2668,12.2668,0,0,1,4.3311-4.4732,8.5316,8.5316,0,0,1,2.9819-1.1,9.36,9.36,0,0,1,5.041.5323,5.23,5.23,0,0,1,3.1948,3.5146,2.46,2.46,0,0,1,0,1.1714A1.474,1.474,0,0,1,410.0156,140.334Z"/><path class="cls-1" d="M425.3515,125.353q.3546,7.74,1.2071,16.0108t1.8461,15.7973q.2124,3.1252-1.7041,3.1949a1.4159,1.4159,0,0,1-.852-.3194,3.6678,3.6678,0,0,1-.7813-.8164,11.3271,11.3271,0,0,1-.6743-1.0649,3.1611,3.1611,0,0,1-.3906-.9942q-.5691-3.621-1.0649-7.6679-.4974-4.0474-.8872-8.1294t-.6749-7.9878q-.2841-3.9039-.3549-7.1709a14.0237,14.0237,0,0,1,.497-2.8755,1.3559,1.3559,0,0,1,1.4913-1.1006,2.0236,2.0236,0,0,1,1.7392.9585A4.6616,4.6616,0,0,1,425.3515,125.353Z"/><path class="cls-1" d="M446.1543,129.6133a.963.963,0,0,1-.9937.7808q-.8526.0717-1.42.0708a33.1711,33.1711,0,0,0-7.5967,1.207,2.3571,2.3571,0,0,1-1.8462-.2129,2.4122,2.4122,0,0,1-1.207-1.9878,1.147,1.147,0,0,1,.4263-.9233,5.1056,5.1056,0,0,1,.9936-.6387,12.5062,12.5062,0,0,1,2.2012-.7456,19.2526,19.2526,0,0,1,2.5913-.4614,18.5194,18.5194,0,0,1,2.52-.1065,8.7572,8.7572,0,0,1,1.9883.2485,4.1675,4.1675,0,0,1,1.81,1.065A1.955,1.955,0,0,1,446.1543,129.6133Zm-1.6329,23.6426a6.5206,6.5206,0,0,1,.5323,2.45,1.9119,1.9119,0,0,1-.7451,1.81,1.8551,1.8551,0,0,1-2.13-.0713,4.4344,4.4344,0,0,1-1.7036-1.917,13.4666,13.4666,0,0,1-1.2071-3.6562q-.4261-2.1651-.6391-4.2954T438.38,143.6q-.0366-1.8458-.0356-2.769a4.2,4.2,0,0,1,.5684-1.8462,1.8663,1.8663,0,0,1,1.2778-.9937,2.6043,2.6043,0,0,1,2.0591,1.1714,4.28,4.28,0,0,1,.71,2.7334q0,1.2782.0708,2.84t.2842,3.1241q.2132,1.563.4971,3.0176A10.5519,10.5519,0,0,0,444.5214,153.2559Z"/><path class="cls-1" d="M468.5893,141.896a24.6444,24.6444,0,0,1-5.9639,2.5205,25.6211,25.6211,0,0,1-6.8867.8877,6.33,6.33,0,0,0,1.42,3.94,5.1192,5.1192,0,0,0,3.1948,1.7393,7.5422,7.5422,0,0,0,2.3076-.0708,9.5215,9.5215,0,0,0,2.2012-.6743,12.8512,12.8512,0,0,0,1.8813-1.03,13.4617,13.4617,0,0,0,1.4907-1.1357,3.2064,3.2064,0,0,1,1.3492-.7457,1.8431,1.8431,0,0,1,1.0649-.0356q.9939.356.71,2.13a10.87,10.87,0,0,1-3.2657,3.87,10.6626,10.6626,0,0,1-4.7573,2.0235,10.5346,10.5346,0,0,1-4.686-.2129,9.7837,9.7837,0,0,1-4.3311-2.4849,10.9251,10.9251,0,0,1-2.4848-3.834,16.7231,16.7231,0,0,1-1.065-4.5439,10.72,10.72,0,0,1,.3906-4.189,9.8768,9.8768,0,0,1,1.8814-3.5146,10.2808,10.2808,0,0,1,3.1948-2.5206,10.9537,10.9537,0,0,1,4.4732-1.1362,9.9292,9.9292,0,0,1,5.538,1.1362,7.4567,7.4567,0,0,1,3.479,3.7627,3.74,3.74,0,0,1,.3194,2.3433A3.0866,3.0866,0,0,1,468.5893,141.896Zm-8.1645-4.8281a7.6628,7.6628,0,0,0-1.5269.4971,6.7276,6.7276,0,0,0-1.4907.8876A7.2549,7.2549,0,0,0,456.2,139.66a2.7812,2.7812,0,0,0-.6036,1.5263,18.5171,18.5171,0,0,0,2.6626-.2128q1.4539-.2132,2.84-.5328a21.8583,21.8583,0,0,0,2.5561-.7456,10.0639,10.0639,0,0,0,1.9522-.9228,2.7342,2.7342,0,0,0-2.0943-1.6685A7.992,7.992,0,0,0,460.4248,137.0679Z"/><path class="cls-1" d="M480.8725,135.1509q.2131,1.0649.4614,2.3789t.5328,2.6977q.2826,1.3844.4965,2.8047t.355,2.6978q.8526-1.845,1.8462-3.9048a30.6627,30.6627,0,0,1,2.1655-3.7988,14.4077,14.4077,0,0,1,2.4849-2.8755,4.3076,4.3076,0,0,1,2.8755-1.1358,5.1863,5.1863,0,0,1,3.94,1.7041,14.7347,14.7347,0,0,1,2.6983,4.2242,30.124,30.124,0,0,1,1.7392,5.29q.6394,2.7693,1.0655,4.8989.4254,1.9176-1.7041,2.84-.9954.4973-1.4913.1421a1.2514,1.2514,0,0,1-.5678-.71,23.7664,23.7664,0,0,1-.8877-2.9824q-.5325-2.13-1.2071-4.3311a22.8208,22.8208,0,0,0-1.5263-3.834q-.8519-1.6317-1.917-1.4907-1.2781.0718-2.272,1.917-.8519,1.4913-1.7392,3.3013-.8892,1.81-1.74,3.6924t-1.6685,3.7627q-.8174,1.8822-1.5263,3.4433a2.5427,2.5427,0,0,1-1.2427.6748,2.6086,2.6086,0,0,1-1.5264-.1064,2.3383,2.3383,0,0,1-1.1362-.71,1.5334,1.5334,0,0,1-.4258-.9941q-.6393-5.5378-1.3134-10.0821-.6761-4.5432-1.74-9.3007a4.4033,4.4033,0,0,1-.1772-2.5918q.3192-.958,2.0942-.7456A3.593,3.593,0,0,1,480.8725,135.1509Z"/><path class="cls-1" d="M522.5488,139.5532a5.1613,5.1613,0,0,1,2.6982.6387,2.3349,2.3349,0,0,1,1.3492,2.2012,1.6624,1.6624,0,0,1-1.3135,1.5263,7.5729,7.5729,0,0,1-1.8819.32q-1.4208,0-3.0527.0708-1.634.0717-3.3369.2129-.1436,2.343-.2485,4.4023-.1069,2.06-.1778,3.6563t-.0708,2.5913a3.5213,3.5213,0,0,0,.0708,1.0654,19.91,19.91,0,0,0,3.3726-.9585q1.8105-.6746,3.6211-1.4912t3.55-1.7041q1.7388-.8869,3.3017-1.6685a1.9241,1.9241,0,0,1,1.3135-.2129.9173.9173,0,0,1,.7451.6392,4.1033,4.1033,0,0,1-.2129,1.917,5.0112,5.0112,0,0,1-1.2778,2.0586,31.7477,31.7477,0,0,1-2.8047,1.9526,42.5581,42.5581,0,0,1-3.7275,2.0947,39.4545,39.4545,0,0,1-4.0112,1.7393,14.3184,14.3184,0,0,1-3.5855.8877,3.8159,3.8159,0,0,1-3.55-1.2783,6.4459,6.4459,0,0,1-1.3486-3.7627q-.1435-2.2721-.0357-5.2539.1062-2.9824.2486-6.3194-1.35.1436-2.5918.2486-1.2429.107-2.3784.2485a5.65,5.65,0,0,1-2.0235-.4258,1.6047,1.6047,0,0,1-1.1006-1.6333,2.7422,2.7422,0,0,1,.355-1.1357,2.3719,2.3719,0,0,1,1.562-1.065q2.9108-.4958,6.461-.852.213-3.3369.497-6.4609t.4971-5.68a3.0994,3.0994,0,0,1,.4971-1.4912,1.166,1.166,0,0,1,.9228-.6387,3.9029,3.9029,0,0,1,2.3076.6035,1.8757,1.8757,0,0,1,1.1006,1.5264q-.2849,2.4147-.5327,5.4668-.249,3.0542-.4614,6.248,1.4195-.1413,2.7334-.1772T522.5488,139.5532Z"/></g></g></svg>