<?xml version="1.0" encoding="utf-8"?>
<!-- Generator: Adobe Illustrator 26.0.3, SVG Export Plug-In . SVG Version: 6.00 Build 0)  -->
<svg version="1.1" id="Layer_1" xmlns="http://www.w3.org/2000/svg" xmlns:xlink="http://www.w3.org/1999/xlink" x="0px" y="0px"
	 viewBox="0 0 532.5 163.5" style="enable-background:new 0 0 532.5 163.5;" xml:space="preserve">
<style type="text/css">
	.st0{fill:#1C395C;}
</style>
<g id="Layer_2_00000156564211317177219800000006131809624695313806_">
	<g id="Capa_1">
		<path class="st0" d="M0.2,29.4c0.1-0.3,0.3-0.5,0.5-0.8l27.4-28c0.8-0.9,2.2-0.9,3-0.1c0,0,0.1,0.1,0.1,0.1c0.8,1,0.8,2.4-0.1,3.4
			l-23.5,24l43.7,1c30.7,0.7,55.1,28,54.4,60.8c0.1,1.2-0.9,2.3-2.1,2.3c-1.2,0.1-2.3-0.9-2.3-2.1c0-0.1,0-0.2,0-0.3
			c0.7-30.2-21.8-55.3-50-56l-43.7-1l22.4,25c0.8,1,0.8,2.4-0.1,3.4c-0.8,0.9-2.2,0.9-3,0.1c0,0-0.1-0.1-0.1-0.1L0.6,32
			c-0.2-0.2-0.4-0.5-0.5-0.8C-0.1,30.6,0,30,0.2,29.4z"/>
		<g>
			<path class="st0" d="M87.4,140.2c0,0.5-0.3,1-0.8,1.7c-0.6,0.8-1.4,1.5-2.3,1.9c-0.3,0.3-0.6,0.4-1,0.5c-0.7,0.5-1.4,0.7-2,0.8
				c-0.3,0.3-0.7,0.5-1.4,0.8h-1l-1,0.8l-1.1-0.2l-0.3,0.1l-0.9,0.1c-0.6,0.1-1.1,0.1-1.5,0.1c-0.1,0-0.2,0-0.4-0.1
				c-0.2,0-0.3,0-0.5,0l-0.8,0.3l-1.2,0.1H70l-0.6,0.4l0.2,0.2c-0.9,0-1.6,0-2.1,0.1l-0.3-0.1l-2.4-0.2l-3.4-0.1l-1.1-0.2
				c-0.3,0.2-0.8,0.3-1.2,0.3c-0.5,0-1.1-0.2-1.7-0.5l-1.1,0.4l-0.6-0.5c-1.6,0-2.6-0.2-2.8-0.5l-0.2-0.1c0.1,0-0.2,0-1,0.1
				l-2.3-1.5l-1-0.2c-0.7-0.3-1.2-0.9-1.7-1.6c-0.4-0.7-0.6-1.3-0.6-1.9c0-0.4,0.2-1.2,0.6-2.3l1.2-1.3l1.4,0.1
				c0.3-0.4,0.8-0.6,1.3-0.6c1.2,0,1.9,1,1.9,3c-0.8,0.2-1.3,0.4-1.4,0.5c-0.2,0.2-0.5,0.5-0.9,0.8v0.2l0.5,0.3l0.7,0.7l2.3-0.1
				l1.9,0.6l3-0.1l1.1,0.8l0.5-0.3c0.2,0,0.5,0.1,0.9,0.2l1.5,0.2l0.1,0.4h0.9c0.9-0.3,1.4-0.5,1.5-0.5c0.2,0,0.4,0,0.7,0
				c0.3,0,0.8,0,1.3,0c0.4,0,0.7,0,1,0c0.3,0,0.6,0,0.9,0c0.4,0,0.8,0,1.1,0l1.3-0.3l0.6-0.7l2.2,0.2c1.1-0.3,2-0.5,2.7-0.5h0.3
				c0.3-0.2,0.5-0.3,0.7-0.3c0.1,0,0.3,0,0.4,0.1l0.6-0.2v-0.5h1.2c0.3-0.3,0.8-0.5,1.5-0.6c0.5-0.5,1-0.8,1.3-0.8l0.5-0.7
				c0-0.3-1.2-1.1-3.7-2.3l-0.5-0.3c-0.8-0.1-1.4-0.2-1.9-0.4c-0.3,0-0.5,0-0.8-0.1h-0.1c-0.2,0-0.9-0.2-2.3-0.7
				c-0.4-0.3-0.9-0.5-1.3-0.5c-0.2,0-0.4,0-0.7,0.1H71l-0.2-0.2c-0.6-0.1-1.1-0.3-1.5-0.5l-0.7,0.2l-1.8-0.9h-1.2l-0.8-0.5h-1.2
				l-0.2-0.3h-0.9l-0.8-0.9h-0.4c-1.2,0-2.1-0.2-2.8-0.7l-0.1-0.1c-0.9-0.3-1.5-0.7-1.9-1.3l-1-0.9l-0.6-1.5l-0.7-0.9l0.3-2.4
				l1.4-1.6c0.2,0,0.4-0.3,0.5-0.7c0.1,0,0.3-0.1,0.6-0.3l3-1.6c0.4,0,0.7,0,0.8,0c0.5,0,1.1-0.2,1.7-0.6H63v0.1l0.6-0.5h0.3
				c1.2-0.5,2.3-0.7,3.1-0.7h0.3l0.5,0.1l0.9-0.5c0.2,0,0.5-0.1,0.9-0.1h0.3c0.3,0,0.7,0,1.4-0.1c0.7-0.1,1.2-0.1,1.6-0.2l1-0.1
				l1.6-0.8c0.1,0.1,0.4,0.4,0.8,0.9h1.3c0.2,0,0.7,0.1,1.3,0.3h0.4c0.9,0,1.7,0.2,2.3,0.6c2,0.5,3.1,1.5,3.1,3.1
				c0,1.3-1.1,2.1-3.2,2.4l-0.5-0.7c-0.1,0-0.3-0.1-0.6-0.2c-0.3-0.1-0.5-0.2-0.7-0.2h-1.3l-0.6-0.6l-0.9,0.1l-0.5,0.6l-1.4-1
				l-1.5,0.2l-1.8-0.4c-1.1,0.1-2.1,0.3-2.8,0.7l-0.1,0.1c-0.1,0.1-0.2,0.1-0.4,0.2c-0.1,0.1-0.2,0.1-0.3,0.1l-0.8-0.3l-1.6,0.8
				l-3,0.8l-0.7-0.2l-1.3,0.8h-0.6l-0.3,0.5l-1.2,0.8l0.1,0.3l0.6,0.6l0.6,0.2l0.9,0.6l1.8,0.6l0.9,0.1l1.6,0.9l0.5-0.2
				c1.1,0.2,1.9,0.5,2.3,0.9l0.2,0.2H68l1.2,0.7l0.4-0.4l1.4,0.2h0.2H72l0.8,0.6h0.4c0.7,0,1.2,0.1,1.7,0.2c0,0,0.2,0,0.6,0
				c0.7,0,1.5,0.3,2.3,1l0.7-0.2l0.5,0.2h1l1.7,1.2l1.7,0.2l0.7,0.9c1.3,0.8,2.2,1.5,2.6,2.1c0.4,0.6,0.6,1.5,0.6,2.6
				c0,0.1,0,0.2,0.1,0.3C87.4,139.9,87.4,140.1,87.4,140.2z"/>
			<path class="st0" d="M110.8,142.2c0,0.5-0.3,1-1,1.7c-0.2,0.6-0.5,1.1-0.9,1.5l-0.3,0.1l-0.6,1.1l-1,0.2l-1.1,0.7l-0.6,1h-0.6
				c-0.4,0.2-0.8,0.3-1,0.3l-0.3,0.5c-0.1,0-0.3,0-0.5,0c-0.5,0-1,0.3-1.5,1l-0.8-0.7c-0.2,0-0.4,0-0.7,0c-0.5,0-0.9-0.1-1.3-0.3h-1
				l-0.5-0.3c-1.5-0.2-2.4-0.8-2.8-1.7v-0.2l-0.7-0.3l-0.3-1l-0.7-0.5v-0.9l-0.7-2.5v-2.1L92,139v-1.2l0.3-0.9l-0.1-0.4l0.4-0.7
				l-0.1,0.1c0-0.3,0.1-0.7,0.3-1.1v-0.3l-0.2-1.4c0-0.7,0.3-1.2,0.9-1.7c0-0.1,0.1-0.2,0.1-0.3c0-0.2-0.1-0.5-0.2-1
				c-0.1-0.5-0.2-0.8-0.2-1c0-0.5,0.1-0.9,0.3-1.5c0.3,0.5,0.8,0.7,1.3,0.7H95c0.1-0.2,0.3-0.3,0.5-0.5c0.3-1,0.7-1.8,1.3-2.4
				l0.2-0.2c0-0.2,0.1-0.6,0.3-1.3h0.5l0.1-0.3l0.5-0.1c0.2-0.3,0.3-0.5,0.4-0.6c0.1-0.1,0.5-0.3,1.2-0.7c0.2-0.3,0.4-0.5,0.7-0.8
				c0.2-0.1,0.3-0.2,0.6-0.2l0.2-0.3c1-0.3,1.7-0.5,2-0.5c0.3,0,0.6,0.1,0.9,0.2l0.3-0.1l0.4,0.2c0.5,0.3,0.9,0.6,1.4,0.9l1,0.8v0.2
				c0.9,0.7,1.3,1.7,1.3,3l-0.2,0.6l0.2,1.9l-0.5,0.3l-0.6,1.5l-1.1,1.2l-0.1,0.9c-1.2,0.9-2.4,1.6-3.4,2.1
				c-0.3,0.5-0.9,0.8-1.6,0.8h-0.2l-1.1,0.7h-0.9l-1.4,0.6l-1-0.5h-0.1c-0.1,0.3-0.2,0.8-0.2,1.4l-0.5,0.4l-0.1,0.7l-0.3,1
				c0.1,0.9,0.1,1.5,0.1,1.8l-0.2,0.2c0,0.5,0,0.9,0,1.1c0,0,0,0.1,0,0.2c0,0.1,0,0.1,0,0.2c0,0.3,0.2,0.6,0.5,0.8
				c0.1,0.5,0.3,0.8,0.6,0.9l0.4,0.4l1.3,0.3v0.2l0.5,0.1h2l1.2-0.2l0.6-0.4l0.3-0.1l0.6-0.9l0.3-0.1l1.5-0.5
				c0.2-0.3,0.4-0.5,0.8-0.7l0.2-0.3c0.8-0.2,1.2-0.6,1.3-1.2c0.5-0.5,1.2-0.8,2.1-0.8h0.2C110.4,141,110.8,141.7,110.8,142.2z
				 M105,125.5c0-0.1-0.1-0.3-0.2-0.7l-0.3-0.1l-0.1,0.1c0,0-0.1,0-0.2,0c-0.1,0-0.2,0.1-0.2,0.1c0,0-0.1,0-0.2-0.1
				c-0.1,0-0.1,0-0.2,0l-0.6,0.4l-0.5,0.1l-0.3,0.1l-1,1.3l-0.6,0.5l-0.9,1.6l-0.5,0.3c-0.1,0.7-0.4,1.2-0.8,1.7l-0.2,0.4
				c0.4-0.3,0.9-0.4,1.4-0.4l0.4-0.2l0.2-0.5l0.8,0.1l0.5-0.7h0.3l0.6,0.2l0.3-0.9h0.4v-0.6l0.8-0.2l0.2-0.2l0.1-0.5l0.8-1.1
				C105,126,105,125.8,105,125.5z"/>
			<path class="st0" d="M130.4,140.7c0,0.4-0.2,0.8-0.5,1c-0.3,0.5-0.8,0.9-1.5,1.5l-0.6,0.4l-0.5,0.7l-0.5,0.2L126,145l-0.6,0.1
				l-0.2,0.2c-0.8,0.2-1.4,0.6-1.8,1.2c-0.3,0.2-0.5,0.3-0.8,0.3c-0.2,0-0.3,0-0.4-0.1c-0.7,0.4-1.5,0.6-2.5,0.6
				c-0.9,0-1.5-0.1-1.7-0.2l-1-0.6l-0.3-0.6v-0.2c0-0.5-0.2-0.9-0.7-1.2l-0.2-1.2l-0.5-0.5l-0.3-2.1v-1.3v-0.9l0.2-0.3
				c-0.1-0.2-0.2-0.5-0.2-0.8c0.2-1.6,0.3-2.6,0.3-3.1l-0.5-1l0.5-0.9l0.2-1.4l-0.1-1l0.3-0.9l-0.3-1.2l0.6-0.8l0.1-0.5v-2v-0.4
				v-2.4l0.2-2.5l-0.2-0.5V117v-1.6v-0.6l0.3-3.5c1.6-0.4,2.3-0.6,2.1-0.6c0.6,0,1.1,0.3,1.5,1l0.1,0.5l0.9,0.9l-0.2,1.2v0.2
				c-0.1,0.7-0.2,1.2-0.4,1.4l0.2,1.2l0.2,1.1l-0.4,1.2c0,0.7-0.1,1.3-0.3,1.8c0,0.2,0,0.5-0.1,0.9l-0.1,0.3l0.5,0.6l-0.2,0.6
				c0.1,0.3,0.2,0.5,0.2,0.6c0,0.2-0.1,0.5-0.3,0.9l0.1,0.5l-0.3,1.9v1.2l-0.4,1.2l0.2,1.1l-0.2,2.6l0.2,0.3l-0.3,1.3l-0.1,1.6
				c-0.1,0.2-0.1,0.4-0.1,0.4c0,0.7,0,1.2-0.1,1.6l0.2,0.8v0.9l0.3,0.8l-0.1,0.3c0.2,0.2,0.4,0.5,0.6,0.9h0.5l0.8,0.2l0.3-0.5
				l0.5-0.1c0.2-0.1,0.4-0.1,0.5-0.1h0.2c0.4-0.1,0.7-0.3,0.9-0.6l0.3-0.2c0.3-0.4,0.7-0.7,1.3-0.9c0.2-0.2,0.6-0.5,1.1-0.9
				c0-0.5,0.3-0.9,1-1.2c0.6,0,1-0.1,1.2-0.3c0.8,0.1,1.3,0.3,1.5,0.6C130.3,139.3,130.4,139.8,130.4,140.7z"/>
			<path class="st0" d="M151.6,142.2c0,0.5-0.3,1-1,1.7c-0.2,0.6-0.5,1.1-0.9,1.5l-0.3,0.1l-0.6,1.1l-1,0.2l-1.1,0.7l-0.6,1h-0.6
				c-0.4,0.2-0.8,0.3-1,0.3l-0.3,0.5c-0.1,0-0.3,0-0.5,0c-0.5,0-1,0.3-1.5,1l-0.8-0.7c-0.2,0-0.4,0-0.7,0c-0.5,0-0.9-0.1-1.3-0.3h-1
				l-0.5-0.3c-1.5-0.2-2.4-0.8-2.8-1.7v-0.2l-0.7-0.3l-0.3-1l-0.7-0.5v-0.9l-0.7-2.5v-2.1l0.3-0.9v-1.2l0.3-0.9l-0.1-0.4l0.4-0.7
				l-0.1,0.1c0-0.3,0.1-0.7,0.3-1.1v-0.3l-0.2-1.4c0-0.7,0.3-1.2,0.9-1.7c0-0.1,0.1-0.2,0.1-0.3c0-0.2-0.1-0.5-0.2-1
				c-0.1-0.5-0.2-0.8-0.2-1c0-0.5,0.1-0.9,0.3-1.5c0.3,0.5,0.8,0.7,1.3,0.7h0.2c0.1-0.2,0.3-0.3,0.5-0.5c0.3-1,0.7-1.8,1.3-2.4
				l0.2-0.2c0-0.2,0.1-0.6,0.3-1.3h0.5l0.1-0.3l0.5-0.1c0.2-0.3,0.3-0.5,0.4-0.6c0.1-0.1,0.5-0.3,1.2-0.7c0.2-0.3,0.4-0.5,0.7-0.8
				c0.2-0.1,0.3-0.2,0.6-0.2l0.2-0.3c1-0.3,1.7-0.5,2-0.5c0.3,0,0.6,0.1,0.9,0.2l0.3-0.1l0.4,0.2c0.5,0.3,0.9,0.6,1.4,0.9l1,0.8v0.2
				c0.9,0.7,1.3,1.7,1.3,3l-0.2,0.6l0.2,1.9l-0.5,0.3l-0.6,1.5l-1.1,1.2l-0.1,0.9c-1.2,0.9-2.4,1.6-3.4,2.1
				c-0.3,0.5-0.9,0.8-1.6,0.8h-0.2l-1.1,0.7h-0.9l-1.4,0.6l-1-0.5h-0.1c-0.1,0.3-0.2,0.8-0.2,1.4l-0.5,0.4l-0.1,0.7l-0.3,1
				c0.1,0.9,0.1,1.5,0.1,1.8l-0.2,0.2c0,0.5,0,0.9,0,1.1c0,0,0,0.1,0,0.2c0,0.1,0,0.1,0,0.2c0,0.3,0.2,0.6,0.5,0.8
				c0.1,0.5,0.3,0.8,0.6,0.9l0.4,0.4l1.3,0.3v0.2l0.5,0.1h2l1.2-0.2l0.6-0.4l0.3-0.1l0.6-0.9l0.3-0.1l1.5-0.5
				c0.2-0.3,0.4-0.5,0.8-0.7l0.2-0.3c0.8-0.2,1.2-0.6,1.3-1.2c0.5-0.5,1.2-0.8,2.1-0.8h0.2C151.2,141,151.6,141.7,151.6,142.2z
				 M145.9,125.5c0-0.1-0.1-0.3-0.2-0.7l-0.3-0.1l-0.1,0.1c0,0-0.1,0-0.2,0c-0.1,0-0.2,0.1-0.2,0.1c0,0-0.1,0-0.2-0.1
				c-0.1,0-0.1,0-0.2,0l-0.6,0.4l-0.5,0.1l-0.3,0.1l-1,1.3l-0.6,0.5l-0.9,1.6l-0.5,0.3c-0.1,0.7-0.4,1.2-0.8,1.7l-0.2,0.4
				c0.4-0.3,0.9-0.4,1.4-0.4l0.4-0.2l0.2-0.5l0.8,0.1l0.5-0.7h0.3l0.6,0.2l0.3-0.9h0.4v-0.6l0.8-0.2l0.2-0.2l0.1-0.5l0.8-1.1
				C145.8,126,145.9,125.8,145.9,125.5z"/>
			<path class="st0" d="M176.7,137.9l-1.1,1l-0.1,0.3c-0.1,0.7-0.4,1.3-1,1.7c-0.9,1.7-2.2,3-3.9,3.8l-0.9,0.7l-0.8,0.1l-0.9,0.7
				l-0.6,0.1l-1.5,0.9l-0.9-0.1l-1,0.6l-0.8-0.3l-0.4,0.3l-1.1-0.2l-1.1,0.2l-0.4-0.3l-1.2-0.2l-1.7-1.3l-0.9-1.2
				c-0.6-0.7-0.9-1.4-0.9-1.9v-0.2l-0.6-0.9v-0.8c-0.1-0.5-0.2-0.9-0.2-1.3v-0.4l-0.3-1l0.3-0.7l-0.2-0.5l0.7-1.1l-0.2-0.9l0.5-1.5
				l0.2-0.3l0.2-1.4l-0.1-0.2l0.7-0.8l0.1-0.6l0.5-1.3l0.8-1.6l1-0.9l0.2-0.5l0.3-0.6l0.1-0.6l0.9-1.1c0.2-0.1,0.5-0.2,0.8-0.2
				c0.2-0.7,1.1-1.2,2.9-1.3c1.5,0.3,2.5,0.7,2.9,1.2c0.4,0.1,0.8,0.3,1,0.5l1.2,0.1l0.8,1c0.2,0.4,0.3,0.8,0.4,1.2l0.5,0.5
				l-0.2,0.9c0,0.3,0.1,0.7,0.1,1.3l0.3,0.2v0.9l0.2,1.8c-0.8,0.8-1.8,1.3-2.8,1.4c-0.5-1-1.2-1.8-2.1-2.3v-1.9l-0.4-0.6l0-0.5
				l-0.6-0.7l-0.3-0.2l-0.5,0.2h-0.8c-0.5,0.1-1,0.5-1.5,1.1s-0.9,1.3-1.4,2l-0.1,0.6l-0.4,0.3v1l-0.8,0.8l-0.9,2.5l0.1,0.7l-0.5,1
				l0.2,1.3l-0.3,0.2l-0.1,1.6l0.1,0.3l0.7,0.7l0.3,1.2l0.8,0.2l0.1,0.5l1,0.2l0.8,0.2c0.3-0.2,0.6-0.2,1-0.2h0.4
				c0.5-0.2,0.9-0.3,1.3-0.3c0.3-0.1,0.6-0.2,1-0.3c0.5-0.6,1.1-0.9,2-0.9h0.3c0.2,0,0.3-0.1,0.4-0.3c0.4-0.7,1.1-1.1,2-1.3
				c1.1-1,1.7-1.7,1.9-2.3c0.5-0.3,0.9-0.8,1-1.5l0.3-0.2l0.2-1.3c1.8,0.3,2.7,1.2,2.7,2.7V137.9z"/>
			<path class="st0" d="M198.2,126.2c0,0.3-0.3,0.7-1,1c-0.2,0.2-0.4,0.4-0.9,0.5c-0.5,0.2-0.9,0.4-1.2,0.6l-1.2-0.4
				c-0.6,0.5-1.4,0.7-2.4,0.7l-0.7-0.2l-0.5,0.4h-1.6l-1,0.7c-0.4-0.2-0.8-0.2-1.2-0.2c-0.1,0.1-0.4,0.2-0.8,0.2
				c-0.2,0-0.4-0.1-0.6-0.2l-0.2,2.2v1.6v2l0,2.2l0.2,1l0,0.8l0.8,1.7c-0.1,0.1-0.2,0.3-0.2,0.4c0,0.3,0.4,0.5,1.3,0.6l0.1,0.7
				l0.4,0.2l0.7,0.5l0.5,0.3c0.4-0.1,0.7-0.1,0.8-0.1c0.3,0,0.7,0.1,1,0.2c0.2-0.1,0.5-0.3,1-0.8c0.3-0.3,0.7-0.5,1-0.5
				c0,0,0.1,0,0.2,0c0.1,0,0.1,0,0.2,0c0.3-0.7,1-1.2,1.9-1.4c0.8,0,1.5,0.3,2,0.8v0.4c0,1.3-0.5,2.1-1.4,2.5
				c-0.3,0.8-1.1,1.3-2.2,1.6l-0.7,0.6h-0.8l-1.3,0.3c-0.3,0.1-0.8,0.1-1.3,0.1c-0.3,0-0.6-0.1-1-0.2h-0.8l-2-1.1l-0.5-0.2l-1.2-1.6
				l-0.7-0.8l-1.3-2.9l-0.5-2.7l0.2-0.7l-0.5-0.6l0.3-0.8l-0.3-1.3l0.4-0.4l0.1-0.8l-0.2-0.7l0.2-1l-0.3-0.9l0.3-0.3v-0.9l-0.4-0.2
				l-1.1,0.2l-1-0.7h-0.2c-1.2,0-1.7-0.6-1.7-1.9v-0.2l-0.7-1.1l1.1-1.1l1.4,0.2l0.8-0.1l1.1,0.3h1.2v-1.2l-0.8-1.6l0.8-0.4
				l-0.3-0.9l0.1-1.8l-0.5-0.8c-0.3-0.4-0.4-0.8-0.4-1.2c0-0.4,0.1-0.8,0.3-1l0.2-0.8l0.5-0.5c1-0.2,1.7-0.3,2.1-0.3
				c1.2,0,1.9,0.6,2,1.7l-0.2,0.3c0.2,0.3,0.3,0.7,0.3,1c0,0,0,0.1-0.1,0.3l-0.1,0.4l-0.1,0.4l0.2,0.8l-0.1,0.3l0.1,0.8l-0.5,0.7
				l0.3,1.2l-0.2,1.4l0.5,0.5l-0.5,1l1.8-0.3l3.2,0.3l2.6-0.4l0.9,0.1l0.3-0.1h2.3C197.6,124.9,198.2,125.3,198.2,126.2z"/>
			<path class="st0" d="M238.5,123.5l-0.6,0.8l0.5,1.4l-0.8,0.9l-0.3,1.2l-0.2,0.3l0.1,0.3c0,0.5-0.1,0.9-0.4,1.2l-0.1,0.2v0.2
				c0.1,0.3,0.2,0.5,0.2,0.8c0,0.2,0,0.3-0.1,0.4l0.1,0.2l-0.2,0.6l0.2,0.7l-0.5,0.5l0.2,0.8l0.3,0.4l-0.5,0.5v0.9l-0.4,0.9l0.3,0.9
				L236,138l0.6,0.4l-0.8,1.3l-0.1,0.2l0.6,0.1l-0.4,1.3v0.2c0,0.3,0,0.5-0.1,0.6l0.1,0.2l0.9,0.1l0.8,1.2l-0.4,0.9l0.6-0.1
				c0.2,0.5,0.4,0.9,0.4,1.2l-0.9,0.9c-0.3,0.3-0.7,0.5-1.2,0.8l-1,0.5l-0.3-0.3l-0.6,0.3l-1.8-2.1v-1c-0.2-0.8-0.3-1.5-0.3-2.1
				v-0.3l-0.3-3.4l0.5-2.4l-0.3-1.4l-1,1.6l-0.5,1.5l-0.5,0.2l-0.8,1.3l-1.4,1.3l-0.4,0.7L226,143l-0.3,0.8l-1.9,1.2l-2,2.2
				l-1.1,0.2L220,148c-1,0-1.7-0.4-2.2-1.1c-1.7-0.9-2.6-2.1-2.7-3.7l0.3-0.2l-0.1-0.3l-0.1-0.7l-0.3-0.8l0.3-0.8l0.1-1.2l0.4-1.9
				c0,0,0-0.1,0-0.2c0-0.1-0.1-0.2-0.1-0.2c0-0.2,0-0.3,0.1-0.6c0-0.1-0.1-0.2-0.1-0.5c0-0.3,0.1-0.7,0.3-1.3l0.4-0.2
				c-0.2-0.2-0.3-0.4-0.3-0.6c0-0.2,0-0.3,0-0.3c0-0.1,0-0.3,0-0.4c0-0.5,0.2-0.8,0.7-1c0.1-0.4,0.3-0.8,0.6-1.2l-0.3-0.5l0.7-0.9
				v-0.2c0-0.7,0.3-1.4,0.8-2l-0.1-1l0.2-0.2c0,0,0-0.1,0-0.2c0-0.1-0.1-0.1-0.1-0.2c0-0.2,0.1-0.4,0.2-0.6v-0.3
				c0.2-0.4,0.6-1,1.2-1.7c0.7-0.8,1.1-1.4,1.5-2l0.3,0.3l0.6-0.3l0.3-0.1l1.9-0.9l4.5,0.2v0.4l1.4,0.3c0.9,0,1.5,0.3,1.7,0.9
				c0-0.1,0-0.3,0.1-0.4c0-0.1,0-0.2,0-0.2l1.2,1.1l1.1,0.2l2.1-0.5l0.8,1.5L238.5,123.5z M233,126.5l-0.2-0.4l-0.5-0.1l-1.8-1.4
				l-1.2-0.2h-0.9l-0.1-0.2l-0.5,0.2l-0.5-0.2h-1.5l0.2,0.2l-1.3,0.5l-0.2,0.3l-0.2,0.1c-0.7,0.6-1.2,1.1-1.4,1.5l-0.4,1.4l-0.2,0.5
				l0.6,0.8l-1,0.8l0.1,0.2c-0.4,0.7-0.6,1.5-0.6,2.1l-0.5,0.6l0,1l-0.5,0.5l-0.1,0.5l-0.2,0.1v0.8l-0.2,0.3c0,0.5,0,0.8-0.1,1.1
				l0.1,0.3l-0.5,1.1l0.2,0.3l-0.4,0.6l0.4,1.1l-0.6,0.8l0.1,1.1v0.2l0.2,0.1l0.3-0.1c0.2-0.2,0.4-0.4,0.6-0.5L220,142l0.8-0.1
				l0.2-0.4l3.4-2.8l0.3-0.1l0.4-1c0.2-0.1,0.6-0.2,1-0.5l0.4-0.9l0.5,0l-0.2-1l0.8-0.1c0.1-0.2,0.2-0.3,0.4-0.6s0.4-0.4,0.6-0.6
				l3-3.9l0.5-0.9l-0.1-0.2l0.4-0.6l0.1-0.6l0.5-0.5L233,126.5z"/>
			<path class="st0" d="M281.6,137.9l-1.1,1l-0.1,0.3c-0.1,0.7-0.4,1.3-1,1.7c-0.9,1.7-2.2,3-3.9,3.8l-0.9,0.7l-0.8,0.1l-0.9,0.7
				l-0.6,0.1l-1.5,0.9l-0.9-0.1l-1,0.6l-0.8-0.3l-0.4,0.3l-1.1-0.2l-1.1,0.2l-0.4-0.3l-1.2-0.2l-1.7-1.3l-0.9-1.2
				c-0.6-0.7-0.9-1.4-0.9-1.9v-0.2l-0.6-0.9v-0.8c-0.1-0.5-0.2-0.9-0.2-1.3v-0.4l-0.3-1l0.3-0.7l-0.2-0.5l0.7-1.1l-0.2-0.9l0.5-1.5
				l0.2-0.3l0.2-1.4l-0.1-0.2l0.7-0.8l0.1-0.6l0.5-1.3l0.8-1.6l1-0.9l0.2-0.5l0.3-0.6l0.1-0.6l0.9-1.1c0.2-0.1,0.5-0.2,0.8-0.2
				c0.2-0.7,1.1-1.2,2.9-1.3c1.5,0.3,2.5,0.7,2.9,1.2c0.4,0.1,0.8,0.3,1,0.5l1.2,0.1l0.8,1c0.2,0.4,0.3,0.8,0.4,1.2l0.5,0.5
				l-0.2,0.9c0,0.3,0.1,0.7,0.1,1.3l0.3,0.2v0.9l0.2,1.8c-0.8,0.8-1.8,1.3-2.8,1.4c-0.5-1-1.2-1.8-2.1-2.3v-1.9l-0.4-0.6l0-0.5
				l-0.6-0.7l-0.3-0.2l-0.5,0.2H269c-0.5,0.1-1,0.5-1.5,1.1s-0.9,1.3-1.4,2l-0.1,0.6l-0.4,0.3v1l-0.8,0.8l-0.9,2.5l0.1,0.7l-0.5,1
				l0.2,1.3l-0.3,0.2l-0.1,1.6l0.1,0.3l0.7,0.7l0.3,1.2l0.8,0.2l0.1,0.5l1,0.2l0.8,0.2c0.3-0.2,0.6-0.2,1-0.2h0.4
				c0.5-0.2,0.9-0.3,1.3-0.3c0.3-0.1,0.6-0.2,1-0.3c0.5-0.6,1.1-0.9,2-0.9h0.3c0.2,0,0.3-0.1,0.4-0.3c0.4-0.7,1.1-1.1,2-1.3
				c1.1-1,1.7-1.7,1.9-2.3c0.5-0.3,0.9-0.8,1-1.5l0.3-0.2l0.2-1.3c1.8,0.3,2.7,1.2,2.7,2.7V137.9z"/>
			<path class="st0" d="M301.1,140.7c0,0.4-0.2,0.8-0.5,1c-0.3,0.5-0.8,0.9-1.5,1.5l-0.6,0.4l-0.5,0.7l-0.5,0.2l-0.8,0.5l-0.6,0.1
				l-0.2,0.2c-0.8,0.2-1.4,0.6-1.8,1.2c-0.3,0.2-0.5,0.3-0.8,0.3c-0.2,0-0.3,0-0.4-0.1c-0.7,0.4-1.5,0.6-2.5,0.6
				c-0.9,0-1.5-0.1-1.7-0.2l-1-0.6l-0.3-0.6v-0.2c0-0.5-0.2-0.9-0.7-1.2l-0.2-1.2l-0.5-0.5l-0.3-2.1v-1.3v-0.9l0.2-0.3
				c-0.1-0.2-0.2-0.5-0.2-0.8c0.2-1.6,0.3-2.6,0.3-3.1l-0.5-1l0.5-0.9l0.2-1.4l-0.1-1l0.3-0.9l-0.3-1.2l0.6-0.8l0.1-0.5v-2v-0.4
				v-2.4l0.2-2.5l-0.2-0.5V117v-1.6v-0.6l0.3-3.5c1.6-0.4,2.3-0.6,2.1-0.6c0.6,0,1.1,0.3,1.5,1l0.1,0.5l0.9,0.9l-0.2,1.2v0.2
				c-0.1,0.7-0.2,1.2-0.4,1.4l0.2,1.2l0.2,1.1l-0.4,1.2c0,0.7-0.1,1.3-0.3,1.8c0,0.2,0,0.5-0.1,0.9l-0.1,0.3l0.5,0.6l-0.2,0.6
				c0.1,0.3,0.2,0.5,0.2,0.6c0,0.2-0.1,0.5-0.3,0.9l0.1,0.5l-0.3,1.9v1.2l-0.4,1.2l0.2,1.1l-0.2,2.6l0.2,0.3l-0.3,1.3l-0.1,1.6
				c-0.1,0.2-0.1,0.4-0.1,0.4c0,0.7,0,1.2-0.1,1.6l0.2,0.8v0.9l0.3,0.8l-0.1,0.3c0.2,0.2,0.4,0.5,0.6,0.9h0.5l0.8,0.2l0.3-0.5
				l0.5-0.1c0.2-0.1,0.4-0.1,0.5-0.1h0.2c0.4-0.1,0.7-0.3,0.9-0.6l0.3-0.2c0.3-0.4,0.7-0.7,1.3-0.9c0.2-0.2,0.6-0.5,1.1-0.9
				c0-0.5,0.3-0.9,1-1.2c0.6,0,1-0.1,1.2-0.3c0.8,0.1,1.3,0.3,1.5,0.6C301,139.3,301.1,139.8,301.1,140.7z"/>
			<path class="st0" d="M319.9,138.5c0,0.9-0.2,1.4-0.5,1.7l-0.3,0.2l-0.3,0.8l-0.9,0.3c-0.3,0.6-0.7,1.1-1.2,1.5l-0.5,0.2l-0.8,0.8
				l-0.7,0.2c-0.3,0.7-0.8,1.1-1.7,1.1c-0.1,0.1-0.3,0.3-0.5,0.7c-0.6,0.4-1.2,0.6-1.8,0.7l-0.3,0.1l-0.4,0.5h-1.2l-0.9,0.7
				l-2.4-1.7l-1.1-2.3l-0.1-2.8l-0.2-0.7l0.7-5.1l0.2-0.2c-0.1-0.6-0.2-1.1-0.2-1.7c0-0.3,0.1-1.1,0.3-2.1l0.3-1.3
				c-0.1-0.2-0.2-0.5-0.5-0.8l0.3-1.1l0.1-1.3l0.1-0.2c-0.2-0.3-0.3-0.7-0.3-1.2c0-0.1,0.1-0.2,0.1-0.3c0-0.1,0.1-0.2,0.1-0.3
				c-0.1-0.3-0.2-0.7-0.2-1c0-0.9,0.5-1.4,1.6-1.3h0.7c0.5-0.2,0.8-0.3,0.9-0.3c0.8,0,1.3,0.4,1.6,1.3v0.2c0.2,0.5,0.2,0.9,0.2,1.3
				c0,0.3,0,0.6-0.1,0.8l-0.4,2.9l0.4,0.8c0,0.7-0.2,1.3-0.7,1.9l0.2,0.7l-0.8,2.2c-0.1,1-0.2,1.7-0.3,2.2v1.5l-0.3,0.8l0.1,0.6
				l-0.1,1.3l0.1,1l0.9,0.7l0.7-0.1l0.1-0.2l0.5,0.1l0.8-0.2l0.6-0.6l0.2-0.3l0.4-0.1l0.1-0.3l0.2-0.2l0.3,0.2l0.6-0.6l0.3,0.1
				l0.1-0.4l0.1,0l0.2-0.5l0.5-0.2l1.1-0.5c0.9-0.6,1.8-0.9,2.6-0.9h0.2C319.4,137.7,319.7,138.1,319.9,138.5z M313.9,107.8
				c0,0.5-0.3,0.9-0.9,1.3v0.1c-0.7,0.9-1.4,1.4-1.9,1.5l-0.9,1l-0.6,0.8l-1.3,0.3l-0.6,0.8l-0.9,0.5l-1.5,1.4l-0.9-0.9l0.2-1.5
				l0.6-1c0-0.5,0.3-1,0.9-1.4v-0.2l0.3-0.2l0.1-0.9l0.9-0.2v-0.5l0.7-0.1c0.2-0.8,0.5-1.3,1-1.7l0.2-0.1l0.3-0.3l0.5-1.4
				C312.7,105.5,313.9,106.5,313.9,107.8z"/>
			<path class="st0" d="M341.3,142.2c0,0.5-0.3,1-1,1.7c-0.2,0.6-0.5,1.1-0.9,1.5l-0.3,0.1l-0.6,1.1l-1,0.2l-1.1,0.7l-0.6,1H335
				c-0.4,0.2-0.8,0.3-1,0.3l-0.3,0.5c-0.1,0-0.3,0-0.5,0c-0.5,0-1,0.3-1.5,1l-0.8-0.7c-0.2,0-0.4,0-0.7,0c-0.5,0-0.9-0.1-1.3-0.3h-1
				l-0.5-0.3c-1.5-0.2-2.4-0.8-2.8-1.7v-0.2l-0.7-0.3l-0.3-1l-0.7-0.5v-0.9l-0.7-2.5v-2.1l0.3-0.9v-1.2l0.3-0.9l-0.1-0.4l0.4-0.7
				l-0.1,0.1c0-0.3,0.1-0.7,0.3-1.1v-0.3l-0.2-1.4c0-0.7,0.3-1.2,0.9-1.7c0-0.1,0.1-0.2,0.1-0.3c0-0.2-0.1-0.5-0.2-1
				c-0.1-0.5-0.2-0.8-0.2-1c0-0.5,0.1-0.9,0.3-1.5c0.3,0.5,0.8,0.7,1.3,0.7h0.2c0.1-0.2,0.3-0.3,0.5-0.5c0.3-1,0.7-1.8,1.3-2.4
				l0.2-0.2c0-0.2,0.1-0.6,0.3-1.3h0.5l0.1-0.3l0.5-0.1c0.2-0.3,0.3-0.5,0.4-0.6c0.1-0.1,0.5-0.3,1.2-0.7c0.2-0.3,0.4-0.5,0.7-0.8
				c0.2-0.1,0.3-0.2,0.6-0.2l0.2-0.3c1-0.3,1.7-0.5,2-0.5c0.3,0,0.6,0.1,0.9,0.2l0.3-0.1l0.4,0.2c0.5,0.3,0.9,0.6,1.4,0.9l1,0.8v0.2
				c0.9,0.7,1.3,1.7,1.3,3l-0.2,0.6l0.2,1.9l-0.5,0.3l-0.6,1.5l-1.1,1.2l-0.1,0.9c-1.2,0.9-2.4,1.6-3.4,2.1
				c-0.3,0.5-0.9,0.8-1.6,0.8h-0.2l-1.1,0.7h-0.9l-1.4,0.6l-1-0.5h-0.1c-0.1,0.3-0.2,0.8-0.2,1.4l-0.5,0.4l-0.1,0.7l-0.3,1
				c0.1,0.9,0.1,1.5,0.1,1.8l-0.2,0.2c0,0.5,0,0.9,0,1.1c0,0,0,0.1,0,0.2c0,0.1,0,0.1,0,0.2c0,0.3,0.2,0.6,0.5,0.8
				c0.1,0.5,0.3,0.8,0.6,0.9l0.4,0.4l1.3,0.3v0.2l0.5,0.1h2l1.2-0.2l0.6-0.4l0.3-0.1l0.6-0.9l0.3-0.1l1.5-0.5
				c0.2-0.3,0.4-0.5,0.8-0.7l0.2-0.3c0.8-0.2,1.2-0.6,1.3-1.2c0.5-0.5,1.2-0.8,2.1-0.8h0.2C340.9,141,341.3,141.7,341.3,142.2z
				 M335.6,125.5c0-0.1-0.1-0.3-0.2-0.7l-0.3-0.1l-0.1,0.1c0,0-0.1,0-0.2,0c-0.1,0-0.2,0.1-0.2,0.1c0,0-0.1,0-0.2-0.1
				c-0.1,0-0.1,0-0.2,0l-0.6,0.4l-0.5,0.1l-0.3,0.1l-1,1.3l-0.6,0.5l-0.9,1.6l-0.5,0.3c-0.1,0.7-0.4,1.2-0.8,1.7l-0.2,0.4
				c0.4-0.3,0.9-0.4,1.5-0.4l0.4-0.2l0.2-0.5l0.8,0.1l0.5-0.7h0.3l0.6,0.2l0.3-0.9h0.4v-0.6l0.8-0.2l0.2-0.2l0.1-0.5l0.8-1.1
				C335.5,126,335.6,125.8,335.6,125.5z"/>
			<path class="st0" d="M381.9,137.6c0,0.3-0.3,0.7-0.8,1.2l-0.6,1l-0.2,1.2l-0.5,0.2l-0.1,0.3c-0.6,0.2-1.1,0.7-1.3,1.4
				c-0.4,0.5-0.9,0.9-1.4,1.2c-0.2,0.2-0.4,0.3-0.5,0.4l-0.3,0.5l-0.5,0.1l-1.5,0.8l-2,0.2l-0.5-0.1l-0.9,0.2l-0.3-0.4
				c-0.5-0.3-0.9-0.5-1.2-0.8c-0.5-0.1-0.8-0.5-1-1.1c-0.7-0.8-1-1.4-1-1.9v-0.2l-0.4-0.7l-0.1-0.1l-0.3-1l-0.5-1.1l0.1-1.3
				l-0.6-0.8l-0.9-5c-0.1-0.7-0.2-1.2-0.2-1.7l-0.1-0.3l-0.3-0.4l-0.5,0.7l-2.1,2.2l-0.8,1.2l-0.4,0.8l-0.6,0.9l-0.5,0.5l0.1,0.3
				l-0.8,1.8l-0.5,0.6l-0.6,0.1l-0.5,0.5c0,0.8-0.4,1.3-1.1,1.5l-0.1,0.1c-0.3,0.9-0.7,1.4-1.2,1.6l-0.5,0.8
				c-0.9,0.8-1.4,1.3-1.7,1.5c-0.1,0.4-0.3,0.7-0.6,1c-0.1,0.1-0.2,0.3-0.4,0.5c-0.1,0.7-0.7,1.1-1.6,1.4l-0.6,0.2
				c-0.8,0-1.4-0.5-1.9-1.3l-0.9-1.5l0.3-1.4l-0.2-0.8l0.1-0.1l0.1-0.8l-0.6-1.4l0.5-0.7l-0.2-0.8l0.5-0.8l0.1-1.3l-0.2-0.2l0.3-0.8
				l-0.1-0.4l0-0.9l0.2-1.7c-0.1-0.4-0.2-0.6-0.2-0.8c0-0.1,0-0.2,0-0.2c0-0.1,0-0.2,0-0.2l-0.2-0.5l0.2-1.9v-0.6v-0.9V126l1-1.7
				c1.2,0.2,2,0.5,2.4,0.8c0.5,0.3,0.7,0.9,0.7,1.8v0.5l0.5,0.7l-0.2,1.2l0.2,2.3l-0.4,1.1l0.2,1.2v1l-0.5,0.6l0.5,1l-0.4,0.6
				l-0.1,0.6l0.3,0.6l-0.5,1.2l-0.2,0.5v0.5l0.3,0.6l1-1c0-0.6,0.2-1,0.6-1.2c0-0.4,0.2-0.7,0.5-0.9l-0.2-0.2l0.8-0.7l0.2-0.2v-0.5
				l0.9-0.7l0.2-0.6l0.5-0.3l2.3-2.6c-0.2,0.2-0.8,0.9-1.9,2.1v0.1l0.1-0.4l0.8-0.9l0.5-1v-0.6l0.9-0.3l0.1-0.8l0.2-0.2l0.1-0.3
				v-0.4l0.8-0.8c0-0.1,0-0.2,0-0.3c0-0.1-0.1-0.2-0.1-0.2c0-0.7,0.4-1.1,1.2-1.2c0.3-0.7,0.9-1.1,1.6-1.2l0.3-0.5l0.1-0.1
				c0.3-0.5,0.9-0.9,1.6-1l0.5-0.6h1.4l0.7,0.8l0.6,0.3l0.1,0.2l0.4,0.1l0.1,1.2l1,0.6l-0.4,1.3l0.6,1.4v1.6l0.5,2.2l0.1,2.1
				l0.5,1.2l0.3,1.5c0.2,0.2,0.4,0.6,0.5,1l1,0.3v1.2l0.6,0.6v0.2l0.2,0.1l0.2,0.3l0.2-0.3c-0.1,0,0,0,0.3,0.1
				c0.4,0,0.9-0.4,1.3-1.2l0.7-0.2l0.2-0.3c0.1-0.3,0.3-0.5,0.7-0.7l0.4,0.1l0.2-0.2l0.1-0.3l0.2-0.2c0.4-0.3,0.6-0.7,0.8-1.2
				l0.6-0.7l0.1-0.5l0.4-0.9l1.1-0.4l1.6,0.5l0.5,1.7c0,0,0,0.1,0.1,0.1C381.9,137.5,381.9,137.5,381.9,137.6z"/>
			<path class="st0" d="M401.7,126.2c0,0.3-0.3,0.7-1,1c-0.2,0.2-0.4,0.4-0.9,0.5c-0.5,0.2-0.9,0.4-1.2,0.6l-1.2-0.4
				c-0.6,0.5-1.4,0.7-2.4,0.7l-0.7-0.2l-0.5,0.4h-1.6l-1,0.7c-0.4-0.2-0.8-0.2-1.2-0.2c-0.1,0.1-0.4,0.2-0.8,0.2
				c-0.2,0-0.4-0.1-0.6-0.2l-0.2,2.2v1.6v2l0,2.2l0.2,1l0,0.8l0.8,1.7c-0.1,0.1-0.2,0.3-0.2,0.4c0,0.3,0.4,0.5,1.3,0.6l0.1,0.7
				l0.4,0.2l0.7,0.5l0.5,0.3c0.4-0.1,0.7-0.1,0.8-0.1c0.3,0,0.7,0.1,1,0.2c0.2-0.1,0.5-0.3,1-0.8c0.3-0.3,0.7-0.5,1-0.5
				c0,0,0.1,0,0.2,0c0.1,0,0.1,0,0.2,0c0.3-0.7,1-1.2,1.9-1.4c0.8,0,1.5,0.3,2,0.8v0.4c0,1.3-0.5,2.1-1.4,2.5
				c-0.3,0.8-1.1,1.3-2.2,1.6l-0.7,0.6h-0.8l-1.3,0.3c-0.3,0.1-0.8,0.1-1.3,0.1c-0.3,0-0.6-0.1-1-0.2h-0.8l-2-1.1l-0.5-0.2l-1.2-1.6
				l-0.7-0.8l-1.3-2.9l-0.5-2.7l0.2-0.7l-0.5-0.6l0.3-0.8l-0.3-1.3l0.4-0.4l0.1-0.8l-0.2-0.7l0.2-1l-0.3-0.9l0.3-0.3v-0.9l-0.4-0.2
				l-1.1,0.2l-1-0.7h-0.2c-1.2,0-1.7-0.6-1.7-1.9v-0.2l-0.7-1.1l1.1-1.1l1.5,0.2l0.8-0.1l1.1,0.3h1.2v-1.2l-0.8-1.6l0.8-0.4
				l-0.3-0.9l0.1-1.8l-0.5-0.8c-0.3-0.4-0.4-0.8-0.4-1.2c0-0.4,0.1-0.8,0.3-1l0.2-0.8l0.5-0.5c1-0.2,1.7-0.3,2.1-0.3
				c1.2,0,1.9,0.6,2,1.7l-0.2,0.3c0.2,0.3,0.3,0.7,0.3,1c0,0,0,0.1-0.1,0.3l-0.1,0.4l-0.1,0.4l0.2,0.8l-0.1,0.3l0.1,0.8l-0.5,0.7
				l0.3,1.2l-0.2,1.4l0.5,0.5l-0.5,1l1.8-0.3l3.2,0.3l2.6-0.4l0.9,0.1l0.3-0.1h2.3C401.1,124.9,401.7,125.3,401.7,126.2z"/>
			<path class="st0" d="M459.2,139.3c0,0.4-0.1,0.9-0.4,1.3l-0.3,0.2l-0.2,0.8l-1,0.3c0,0.5-0.3,0.8-0.9,1l-0.8,0.8h-1l-0.5,0.9
				l-0.1,0.2c-0.7,0.6-1.4,0.9-2.1,1l-0.6,0.8c-0.5,0.4-1.2,0.6-1.9,0.6l-0.2,0.1l-0.3,0.5h-1.2l-0.8,0.6l-1.1-0.6l-1.5-1.1l-1-2.2
				l-0.1-3l-0.2-0.7l0.3-2.4l0.3-2.6l0.4-0.7l-0.2-1.2v-1.3c0-0.1,0-0.2,0-0.3c0-0.2-0.1-0.3-0.1-0.3c0-0.5,0.2-0.9,0.6-1.3l0.2-0.2
				l-0.2-1.6l-1.1,0.7l-2.1,0.1l-1,0.5l-1.6,0.4l-3.1,0.5l-0.3-0.3c-0.3,0.3-0.7,0.4-1.2,0.4h-0.3l0.1,0.1l-0.3-0.1l-1.6,0.6
				l-1.2-0.3c-0.2,0.4-0.6,0.6-1.2,0.8l0.1,0.4l-0.2,0.8l0.3,1l-0.8,1.5l0.2,2.3l-0.3,0.8l0.2,0.8l-0.6,1.3l0.2,0.8
				c0,0,0.1,0.1,0.1,0.3c0,0.3-0.1,0.8-0.2,1.6c-0.1,0.8-0.2,1.4-0.2,1.8v0.7l0.5,1l-0.3,0.8l0.4,1.2l-0.3,0.9l0.6,2.8l0.2,3.1
				l0.7,1.3l-0.3,1.1c0.5,0.8,0.7,1.5,0.7,2v0.2c0,0.1,0,0.2,0.1,0.3c0,0.2,0,0.3,0,0.3c0,1.5-0.9,2.2-2.6,2.3l-0.5-0.9l-0.7-0.4
				l-0.1-1l-1.2-3.2v-0.6c-0.2-0.7-0.2-1.1-0.2-1.2c0-0.2,0-0.3,0.1-0.4l-0.2-1l0.2-1l-0.2-0.6v-1.3l-0.5-3.7l0.1-0.1l-0.1-0.6
				l0.1-0.8l-0.4-0.8l0.3-0.6l-0.2-2.1l0.6-1.6l-0.5-1.3l0.5-0.9l-0.2-1.9l0.5-1.3v-1.2c0-0.4,0.2-1.3,0.5-2.6l-0.2,0.1l-0.8-0.2
				l-0.9,0l-1.6,0.2l-1-0.2l-1.7,0.3l-0.6-0.1c-0.2,0-0.4,0.1-0.7,0.1c-1.7-0.7-2.6-1.3-2.7-1.8l-0.3-1c0.5-1.5,1.1-2.2,2-2.2
				c0.2,0,0.4,0.1,0.5,0.2h0.3l1.2,0.2l1.2-0.1l2.2,0.1l1.7-0.3h1.3h0.5l0.2-0.7l0.1-1.7l0.3-0.6l-0.2-1.2c0-0.4,0.2-0.8,0.5-1.1
				c0-0.1,0-0.3-0.1-0.6l0.6-0.7l0.3-1.8l0.2-0.2l-0.2-0.8c0.5-0.5,0.7-1,0.7-1.3c0,0,0-0.1-0.1-0.3c0-0.1,0.1-0.4,0.3-0.9
				c0.2-0.7,0.4-1.3,0.6-1.8l0.2,0.1c0-0.6,0.1-1.2,0.2-1.6l0.1,0.2v-0.2c0-0.6,0.3-1.1,0.8-1.4l0.3-0.6l0.7-1.6h0.1
				c0.4,0,0.6-0.3,0.6-0.8v-0.2l1.6-0.6h0.5c0.6-0.3,1.2-0.5,1.7-0.6l0.6-0.3l1.3-0.2l1,0.2l1.2-0.2l0.9,0.5l1,0.1l0.8,0.6l0.2,0.1
				c0.3-0.1,0.5-0.2,0.7-0.2c0.6,0,1.1,0.4,1.6,1.3l0.8,0.6l0.5,1.2l0.8,0.9c0,0.2,0,0.5,0.1,1c0.1,0.4,0.1,0.8,0.1,1
				c0,0.8-0.6,1.5-1.7,2.2l-1.7-0.2l-1.5-1l-0.7-1.2l-0.1-0.6v-0.2l-0.2-0.3l-1.9-1.3l-1.2-0.1l-0.5,0.3l-1.9,0.4
				c-0.2,0.6-0.7,1-1.5,1c-0.6,0.6-1.3,2.2-2.2,4.8l-0.2,0.1l-0.2,0.6l-0.3,0.6l0.4,1.1l-0.8,1l-0.2,0.9l-0.2,0.5l0.1,0.8l-0.8,2
				c0,0.2,0,0.4,0,0.7c0,0.4-0.1,0.8-0.2,1.1c-0.2,0.3-0.3,0.7-0.4,1c0.2-0.1,0.5-0.2,0.9-0.2l0.3,0.1c0.1,0,0.3-0.1,0.5-0.2h0.3
				c0.2,0,0.4,0,0.9,0.1c0.4,0,0.8,0.1,1,0.1c0.5-0.2,0.8-0.2,1-0.2l1.2-0.1l1.2-0.5l1.4,0.2l1.1-0.7c1.7-0.2,2.9-0.4,3.4-0.7
				c0.2-0.2,0.4-0.3,0.6-0.5h0.2c0.6,0,1-0.3,1.2-0.8l1.1,0.4c0.2-0.2,0.2-0.4,0.2-0.6h1.7l1,1.7l-0.7,1.7v1.1l-0.1,0.8l0.3,0.8v0.1
				c0,0.3-0.2,0.9-0.7,1.8l0.2,0.8l-0.7,2.3c0,0.3-0.1,1-0.3,2.2v1.5l-0.3,0.9l0.1,0.6l-0.2,1.3l0.2,1.6l0.1,0.2l1.3-0.1l1.1-0.9
				l1-0.3l0.8-0.8l0.2,0.1c0.3-0.2,0.8-0.4,1.3-0.6l0.6-0.4l0.3,0.1l0.7-0.8l0.9-0.5l0.8-1.3l2,0.4
				C459,138.2,459.2,138.7,459.2,139.3z"/>
			<path class="st0" d="M483.9,125.4l-0.5,1.9l-2.1,0.3l-1.2,0.8l-0.8-0.3l-0.8,0.5l-0.9,0.3l-0.6,0.4l0,0.2l-1.2,0.6l-0.8,1.1h-0.4
				c-0.6,0.7-1.1,1.1-1.3,1.2l-0.8,1.3l-0.3,0.1c-0.1,0.3-0.3,0.8-0.4,1.4l-0.8,0.3l-0.3,0.7l-0.5,0.6l-0.1,0.9l-0.5,0.2v0.9
				l-0.2,0.2c0.1,0.2,0.3,0.4,0.4,0.6l-0.9,0.3l-0.1,0.8l-0.6,1l0.3,0.8l-0.8,1c0.1,0.4,0.1,0.7,0.1,0.8c0,0,0,0.1,0,0.2
				c0,0.1-0.1,0.2-0.1,0.3l0.1,0.5l1,1l-0.8,1.3l-0.7,0.5l-1.6,0.8l-2.1-0.9v-1.3l-0.2-0.5l0.2-0.9c-0.1-0.6-0.1-1.1-0.1-1.4
				c0-0.1,0-0.3,0.1-0.5c0-0.2,0-0.3,0-0.4l-0.1-0.6c-0.3-0.3-0.4-0.6-0.4-0.9c0-0.3,0.1-0.7,0.4-1c0-0.2,0-0.8-0.1-1.7l0.2-0.2
				l-0.2-0.8l0.1-0.7l-0.1-0.4l0.2-1.3l-0.3-0.6l0.2-0.6l-0.2-0.8c0-0.2,0.1-0.5,0.1-0.9c0-0.6-0.1-1-0.2-1.2l0.2-0.3l-0.2-1
				l-0.5-0.8l0.3-0.9l-0.2-0.3l-0.2-1.4V126c-0.2-0.2-0.3-0.5-0.3-0.9c0-0.8,0.8-1.4,2.6-2l1.4,0.3l0.3,1.1l0.6,0.8l-0.2,1.6
				c0.1,0.8,0.3,1.6,0.4,2.6l0.2,0.9c0,0.1,0.1,0.3,0.1,0.6c0,0.2-0.1,0.5-0.3,0.8l0.2,1.2l-0.1,1.3l-0.2,0.6l0.2,0.2l0.1,0.6
				c0.2-0.3,0.4-0.6,0.4-0.9l0.2-0.9c0.1-0.2,0.3-0.4,0.5-0.5l0.2-0.9l0.8-0.5l0.1-0.7l0.6-0.7l0.5-0.9c0.5-0.5,1-0.9,1.4-1l0.1-0.2
				l0.5-0.8l0.6-0.1l0.2-0.2l0.2-0.3l0.6-0.3l0.3-0.4l0.3,0.1l0.5-0.2l0.2-0.3l0.7-0.3l1-0.6l1.4-0.5c0.5-0.1,0.8-0.1,0.9-0.1v0.1
				c0,0-0.1,0-0.1,0.1h0.1c0.2,0,0.4-0.1,0.7-0.2c0.2-0.2,0.5-0.2,0.8-0.2c0.2,0,0.4,0,0.8,0.1C483.2,124,483.8,124.5,483.9,125.4z"
				/>
			<path class="st0" d="M506.3,142.2l-0.7,0.8l-0.6,1.5l-0.5,0.3l-0.4,0.8l-1.2,0.1l-0.8,0.8H501l-0.7,0.6l-0.6-0.2l-0.8,0.2v0.5
				l-2.1-0.2h-0.9l-0.7,0.4l-0.6-0.3c0.4,0,0.7-0.1,0.9-0.1c-0.3,0-1.2,0.1-2.8,0.2l-0.2-0.1l-0.5-0.1l-0.8,0.4
				c-0.2-0.1-0.7-0.2-1.3-0.3c-0.8,0-1.4-0.1-1.7-0.1h-0.5c-0.3-0.1-0.6-0.2-0.9-0.2c-0.3,0-0.6,0.1-0.9,0.2l-0.8-0.5l-0.5-0.1
				c-0.1,0-0.3-0.1-0.6-0.2c-1.4-0.2-2.1-1.3-2.1-3.6v-0.5l1.1-0.8l1.4-0.5l1,0.5h0.8v0.2c0.4,0.2,0.7,0.5,0.9,0.9l0.5,0.1v0.8
				l0.8,0.2l0.2,0.1l7.4-0.5l1.8-0.3h0.2l0.1-0.3l0.8-0.1l0.1-0.2c0.8-0.1,1.6-0.3,2.3-0.7l0.1-0.3c0,0-0.1-0.2-0.2-0.4l-0.3,0.1
				l-0.8-0.6h-0.5l-0.3-0.4l0.2-0.2l-0.6,0.1l-0.5-0.5c-0.1,0-0.3,0-0.6,0c-0.5,0-1-0.1-1.5-0.3h-0.5l-0.4-0.2l-0.8,0.3l-0.5-0.5
				H494l-0.8-0.6l-1.8-0.7l-0.6-0.5l-2.2-0.4l-0.2-0.4l-1.6-1l-0.9-1.9l-0.7-1l-0.2-3l0.2-0.3c0.1-0.9,0.4-1.7,0.9-2.3
				c0.6-0.3,0.9-0.8,0.9-1.3l0.9-0.2c0.2-0.3,0.5-0.6,0.9-0.9l0.9-0.7l3.7-1.4l0.6-0.2l1.2-0.1l1.9-0.5l3.7,0.2l0.1,0.3
				c0.3,0.1,0.7,0.4,1.2,0.9v0.3l0.9,0.6l-0.4,1.4l-0.1,0.5c-0.2,1-0.8,1.5-1.6,1.5c-0.7,0-1.2-0.3-1.6-1V126l-0.7,0l-0.8,0.2
				l-0.8-0.6l-0.4,0.3c-0.5,0-1,0.2-1.4,0.5c-0.6,0-1.1,0.2-1.7,0.7l-0.8,0l-0.5,0.3l-0.8,0.2l-0.1,0.1l-0.3,0.2l-0.5,0.5l-0.2,0.1
				l-0.5,0.8l-0.6,0.3c-0.2,0.5-0.3,0.9-0.3,1.3c0,0.5,0.1,0.9,0.2,1.1c0.1,0.2,0.4,0.4,0.8,0.6v0.3l0.8,0.4
				c0.6,0.2,1.1,0.5,1.4,0.8l1.2,0l0.7,0.7l1.3,0.2l0.5,0.3l2.3,0.6l0.3,0.6l0.2-0.4c0.5,0,1.2,0.2,2,0.7l1,0.2l0.1,0.4h0.9l1.6,0.9
				c0.2,0.5,0.6,1,1.3,1.4l0.6,0.4l-0.2,0.7c0.3,0.4,0.4,0.8,0.4,1.2V142.2z"/>
			<path class="st0" d="M528.8,126.2c0,0.3-0.3,0.7-1,1c-0.2,0.2-0.4,0.4-0.9,0.5c-0.5,0.2-0.9,0.4-1.2,0.6l-1.2-0.4
				c-0.6,0.5-1.4,0.7-2.4,0.7l-0.7-0.2l-0.5,0.4h-1.6l-1,0.7c-0.4-0.2-0.8-0.2-1.2-0.2c-0.1,0.1-0.4,0.2-0.8,0.2
				c-0.2,0-0.4-0.1-0.6-0.2l-0.2,2.2v1.6v2l0,2.2l0.2,1l0,0.8l0.8,1.7c-0.1,0.1-0.2,0.3-0.2,0.4c0,0.3,0.4,0.5,1.3,0.6l0.1,0.7
				l0.4,0.2l0.7,0.5l0.5,0.3c0.4-0.1,0.7-0.1,0.8-0.1c0.3,0,0.7,0.1,1,0.2c0.2-0.1,0.5-0.3,1-0.8c0.3-0.3,0.7-0.5,1-0.5
				c0,0,0.1,0,0.2,0c0.1,0,0.1,0,0.2,0c0.3-0.7,1-1.2,1.9-1.4c0.8,0,1.5,0.3,2,0.8v0.4c0,1.3-0.5,2.1-1.4,2.5
				c-0.3,0.8-1.1,1.3-2.2,1.6l-0.7,0.6h-0.8l-1.3,0.3c-0.3,0.1-0.8,0.1-1.3,0.1c-0.3,0-0.6-0.1-1-0.2h-0.8l-2-1.1l-0.5-0.2l-1.2-1.6
				l-0.7-0.8l-1.3-2.9l-0.5-2.7l0.2-0.7l-0.5-0.6l0.3-0.8l-0.3-1.3l0.4-0.4l0.1-0.8l-0.2-0.7l0.2-1l-0.3-0.9l0.3-0.3v-0.9l-0.4-0.2
				l-1.1,0.2l-1-0.7h-0.2c-1.2,0-1.7-0.6-1.7-1.9v-0.2l-0.7-1.1l1.1-1.1l1.5,0.2l0.8-0.1l1.1,0.3h1.2v-1.2l-0.8-1.6l0.8-0.4
				l-0.3-0.9l0.1-1.8l-0.5-0.8c-0.3-0.4-0.4-0.8-0.4-1.2c0-0.4,0.1-0.8,0.3-1l0.2-0.8l0.5-0.5c1-0.2,1.7-0.3,2.1-0.3
				c1.2,0,1.9,0.6,2,1.7l-0.2,0.3c0.2,0.3,0.3,0.7,0.3,1c0,0,0,0.1-0.1,0.3l-0.1,0.4l-0.1,0.4l0.2,0.8l-0.1,0.3l0.1,0.8l-0.5,0.7
				l0.3,1.2l-0.2,1.4l0.5,0.5l-0.5,1l1.8-0.3l3.2,0.3l2.6-0.4l0.9,0.1l0.3-0.1h2.3C528.2,124.9,528.8,125.3,528.8,126.2z"/>
		</g>
	</g>
</g>
</svg>
