<svg xmlns="http://www.w3.org/2000/svg" width="155" height="155" viewBox="0 0 155 155">
  <g id="Group_1086" data-name="Group 1086" transform="translate(6500 -3990)">
    <rect id="Rectangle_497" data-name="Rectangle 497" width="155" height="155" rx="10" transform="translate(-6500 3990)"/>
    <path id="Path_1134" data-name="Path 1134" d="M57.607,115.213a4.329,4.329,0,1,1,0-8.659A49.306,49.306,0,0,0,102.48,77.183H93.59a40.957,40.957,0,1,1,0-39.154h8.891A48.954,48.954,0,0,0,8.659,57.607a4.329,4.329,0,0,1-8.659,0A57.616,57.616,0,0,1,112.82,41.123a4.33,4.33,0,0,1-4.149,5.566H90.919a4.328,4.328,0,0,1-3.936-2.526,32.3,32.3,0,1,0,0,26.887,4.328,4.328,0,0,1,3.936-2.526h17.752a4.33,4.33,0,0,1,4.149,5.566,58.055,58.055,0,0,1-20.481,29.478,57.1,57.1,0,0,1-34.733,11.645" transform="translate(-6479 4009.893)" fill="#fff"/>
  </g>
</svg>
